<?xml version="1.0" encoding="UTF-8"?>
<!DOCTYPE svg PUBLIC "-//W3C//DTD SVG 1.1//EN" "http://www.w3.org/Graphics/SVG/1.1/DTD/svg11.dtd">
<svg xmlns="http://www.w3.org/2000/svg" version="1.1" width="512px" height="512px" style="shape-rendering:geometricPrecision; text-rendering:geometricPrecision; image-rendering:optimizeQuality; fill-rule:evenodd; clip-rule:evenodd" xmlns:xlink="http://www.w3.org/1999/xlink">
<g><path style="opacity:0.948" fill="#000000" d="M 157.5,-0.5 C 222.833,-0.5 288.167,-0.5 353.5,-0.5C 355.696,0.854084 357.196,2.85408 358,5.5C 358.5,11.8246 358.666,18.1579 358.5,24.5C 361.85,24.335 365.183,24.5017 368.5,25C 370.848,25.3459 372.681,26.5125 374,28.5C 375.131,38.7641 375.631,49.0974 375.5,59.5C 375.333,68.8333 375.167,78.1667 375,87.5C 374.226,89.9393 372.726,91.7727 370.5,93C 366.514,93.4988 362.514,93.6655 358.5,93.5C 358.045,109.904 358.545,126.237 360,142.5C 363.274,146.449 367.107,149.616 371.5,152C 386.83,152.5 402.163,152.667 417.5,152.5C 417.334,148.486 417.501,144.486 418,140.5C 419.227,138.274 421.061,136.774 423.5,136C 432.833,135.833 442.167,135.667 451.5,135.5C 461.903,135.369 472.236,135.869 482.5,137C 484.487,138.319 485.654,140.152 486,142.5C 486.498,145.817 486.665,149.15 486.5,152.5C 492.842,152.334 499.175,152.5 505.5,153C 508.146,153.804 510.146,155.304 511.5,157.5C 511.5,222.833 511.5,288.167 511.5,353.5C 510.146,355.696 508.146,357.196 505.5,358C 499.175,358.5 492.842,358.666 486.5,358.5C 486.665,361.85 486.498,365.183 486,368.5C 485.654,370.848 484.487,372.681 482.5,374C 472.236,375.131 461.903,375.631 451.5,375.5C 442.167,375.333 432.833,375.167 423.5,375C 421.061,374.226 419.227,372.726 418,370.5C 417.501,366.514 417.334,362.514 417.5,358.5C 404.829,358.333 392.162,358.5 379.5,359C 372.025,361.478 367.858,366.644 367,374.5C 366.5,388.829 366.333,403.163 366.5,417.5C 370.602,417.64 373.436,419.64 375,423.5C 375.667,442.167 375.667,460.833 375,479.5C 373.961,483.371 371.461,485.705 367.5,486.5C 366.669,493.476 366.169,500.476 366,507.5C 364.624,508.705 363.458,510.038 362.5,511.5C 291.167,511.5 219.833,511.5 148.5,511.5C 147.542,510.038 146.376,508.705 145,507.5C 144.831,500.476 144.331,493.476 143.5,486.5C 139.539,485.705 137.039,483.371 136,479.5C 135.333,460.833 135.333,442.167 136,423.5C 137.564,419.64 140.398,417.64 144.5,417.5C 144.667,403.163 144.5,388.829 144,374.5C 143.142,366.644 138.975,361.478 131.5,359C 118.838,358.5 106.171,358.333 93.5,358.5C 93.6655,362.514 93.4988,366.514 93,370.5C 91.7727,372.726 89.9393,374.226 87.5,375C 78.1667,375.167 68.8333,375.333 59.5,375.5C 49.0974,375.631 38.7641,375.131 28.5,374C 26.5125,372.681 25.3459,370.848 25,368.5C 24.5017,365.183 24.335,361.85 24.5,358.5C 18.1579,358.666 11.8246,358.5 5.5,358C 2.85408,357.196 0.854084,355.696 -0.5,353.5C -0.5,288.167 -0.5,222.833 -0.5,157.5C 0.854084,155.304 2.85408,153.804 5.5,153C 11.8246,152.5 18.1579,152.334 24.5,152.5C 24.335,149.15 24.5017,145.817 25,142.5C 25.3459,140.152 26.5125,138.319 28.5,137C 38.7641,135.869 49.0974,135.369 59.5,135.5C 68.8333,135.667 78.1667,135.833 87.5,136C 89.9393,136.774 91.7727,138.274 93,140.5C 93.4988,144.486 93.6655,148.486 93.5,152.5C 109.904,152.955 126.237,152.455 142.5,151C 146.449,147.726 149.616,143.893 152,139.5C 152.5,124.17 152.667,108.837 152.5,93.5C 148.486,93.6655 144.486,93.4988 140.5,93C 138.274,91.7727 136.774,89.9393 136,87.5C 135.833,78.1667 135.667,68.8333 135.5,59.5C 135.369,49.0974 135.869,38.7641 137,28.5C 138.319,26.5125 140.152,25.3459 142.5,25C 145.817,24.5017 149.15,24.335 152.5,24.5C 152.334,18.1579 152.5,11.8246 153,5.5C 153.804,2.85408 155.304,0.854084 157.5,-0.5 Z M 170.5,17.5 C 227.167,17.5 283.833,17.5 340.5,17.5C 340.5,19.8333 340.5,22.1667 340.5,24.5C 283.833,24.5 227.167,24.5 170.5,24.5C 170.5,22.1667 170.5,19.8333 170.5,17.5 Z M 153.5,42.5 C 221.5,42.5 289.5,42.5 357.5,42.5C 357.5,53.5 357.5,64.5 357.5,75.5C 289.5,75.5 221.5,75.5 153.5,75.5C 153.5,64.5 153.5,53.5 153.5,42.5 Z M 170.5,93.5 C 227.167,93.5 283.833,93.5 340.5,93.5C 340.667,104.505 340.5,115.505 340,126.5C 291.707,97.211 241.54,93.711 189.5,116C 183.252,119.373 177.085,122.873 171,126.5C 170.5,115.505 170.333,104.505 170.5,93.5 Z M 243.5,119.5 C 298.833,117.77 341.666,139.77 372,185.5C 401.074,239.916 397.408,291.916 361,341.5C 322.186,384.879 274.353,399.713 217.5,386C 160.098,366.589 127.598,326.755 120,266.5C 118.283,207.074 143.116,162.908 194.5,134C 210.175,126.503 226.508,121.67 243.5,119.5 Z M 42.5,153.5 C 53.5,153.5 64.5,153.5 75.5,153.5C 75.5,221.5 75.5,289.5 75.5,357.5C 64.5,357.5 53.5,357.5 42.5,357.5C 42.5,289.5 42.5,221.5 42.5,153.5 Z M 248.5,153.5 C 253.43,153.197 258.263,153.531 263,154.5C 263.333,179.5 263.667,204.5 264,229.5C 269.701,234.448 274.868,239.948 279.5,246C 305.08,247.315 330.746,247.982 356.5,248C 357.833,253 357.833,258 356.5,263C 330.746,263.018 305.08,263.685 279.5,265C 274.868,271.052 269.701,276.552 264,281.5C 263.667,306.5 263.333,331.5 263,356.5C 258,357.833 253,357.833 248,356.5C 247.982,330.746 247.315,305.08 246,279.5C 239.948,274.868 234.448,269.701 229.5,264C 204.5,263.667 179.5,263.333 154.5,263C 153.167,258 153.167,253 154.5,248C 179.5,247.667 204.5,247.333 229.5,247C 234.448,241.299 239.948,236.132 246,231.5C 247.158,205.515 247.991,179.515 248.5,153.5 Z M 435.5,153.5 C 446.5,153.5 457.5,153.5 468.5,153.5C 468.5,221.5 468.5,289.5 468.5,357.5C 457.5,357.5 446.5,357.5 435.5,357.5C 435.5,289.5 435.5,221.5 435.5,153.5 Z M 227.5,157.5 C 228.832,167.812 229.499,178.478 229.5,189.5C 229.333,200.167 229.167,210.833 229,221.5C 226.167,223.667 223.667,226.167 221.5,229C 200.159,229.833 178.826,229.666 157.5,228.5C 168.816,192.851 192.149,169.185 227.5,157.5 Z M 281.5,157.5 C 318.052,168.385 342.052,192.052 353.5,228.5C 332.174,229.666 310.841,229.833 289.5,229C 287.333,226.167 284.833,223.667 282,221.5C 281.5,200.169 281.333,178.836 281.5,157.5 Z M 17.5,170.5 C 19.8333,170.5 22.1667,170.5 24.5,170.5C 24.5,227.167 24.5,283.833 24.5,340.5C 22.1667,340.5 19.8333,340.5 17.5,340.5C 17.5,283.833 17.5,227.167 17.5,170.5 Z M 93.5,170.5 C 104.505,170.333 115.505,170.5 126.5,171C 97.211,219.297 93.711,269.464 116,321.5C 119.373,327.748 122.873,333.915 126.5,340C 115.505,340.5 104.505,340.667 93.5,340.5C 93.5,283.833 93.5,227.167 93.5,170.5 Z M 384.5,170.5 C 395.5,170.5 406.5,170.5 417.5,170.5C 417.5,227.167 417.5,283.833 417.5,340.5C 406.48,340.832 395.48,340.499 384.5,339.5C 409.724,299.341 415.891,256.341 403,210.5C 398.643,196.233 392.477,182.899 384.5,170.5 Z M 486.5,170.5 C 488.833,170.5 491.167,170.5 493.5,170.5C 493.5,227.167 493.5,283.833 493.5,340.5C 491.167,340.5 488.833,340.5 486.5,340.5C 486.5,283.833 486.5,227.167 486.5,170.5 Z M 157.5,281.5 C 178.836,281.333 200.169,281.5 221.5,282C 223.667,284.833 226.167,287.333 229,289.5C 229.833,310.841 229.666,332.174 228.5,353.5C 192.052,342.052 168.385,318.052 157.5,281.5 Z M 289.5,281.5 C 310.844,281.167 332.177,281.5 353.5,282.5C 342.167,318.5 318.5,342.167 282.5,353.5C 281.334,332.174 281.167,310.841 282,289.5C 285.044,287.291 287.544,284.625 289.5,281.5 Z M 162.5,378.5 C 206.637,409.911 254.637,417.411 306.5,401C 321.468,395.435 335.301,387.935 348,378.5C 348.5,391.496 348.667,404.496 348.5,417.5C 286.5,417.5 224.5,417.5 162.5,417.5C 162.5,404.5 162.5,391.5 162.5,378.5 Z M 153.5,435.5 C 221.5,435.5 289.5,435.5 357.5,435.5C 357.5,446.5 357.5,457.5 357.5,468.5C 289.5,468.5 221.5,468.5 153.5,468.5C 153.5,457.5 153.5,446.5 153.5,435.5 Z M 162.5,486.5 C 224.5,486.5 286.5,486.5 348.5,486.5C 348.5,488.833 348.5,491.167 348.5,493.5C 286.5,493.5 224.5,493.5 162.5,493.5C 162.5,491.167 162.5,488.833 162.5,486.5 Z"/></g>
<g><path style="opacity:0.943" fill="#000000" d="M 235.5,135.5 C 285.999,130.839 326.165,148.839 356,189.5C 382,233.5 382,277.5 356,321.5C 326.184,362.319 286.018,380.152 235.5,375C 182.333,361.833 149.167,328.667 136,275.5C 130.848,224.982 148.681,184.816 189.5,155C 202.459,146.791 216.459,141.124 231.5,138C 233.066,137.392 234.4,136.558 235.5,135.5 Z M 248.5,153.5 C 247.991,179.515 247.158,205.515 246,231.5C 239.948,236.132 234.448,241.299 229.5,247C 204.5,247.333 179.5,247.667 154.5,248C 153.167,253 153.167,258 154.5,263C 179.5,263.333 204.5,263.667 229.5,264C 234.448,269.701 239.948,274.868 246,279.5C 247.315,305.08 247.982,330.746 248,356.5C 253,357.833 258,357.833 263,356.5C 263.333,331.5 263.667,306.5 264,281.5C 269.701,276.552 274.868,271.052 279.5,265C 305.08,263.685 330.746,263.018 356.5,263C 357.833,258 357.833,253 356.5,248C 330.746,247.982 305.08,247.315 279.5,246C 274.868,239.948 269.701,234.448 264,229.5C 263.667,204.5 263.333,179.5 263,154.5C 258.263,153.531 253.43,153.197 248.5,153.5 Z M 227.5,157.5 C 192.149,169.185 168.816,192.851 157.5,228.5C 178.826,229.666 200.159,229.833 221.5,229C 223.667,226.167 226.167,223.667 229,221.5C 229.167,210.833 229.333,200.167 229.5,189.5C 229.499,178.478 228.832,167.812 227.5,157.5 Z M 281.5,157.5 C 281.333,178.836 281.5,200.169 282,221.5C 284.833,223.667 287.333,226.167 289.5,229C 310.841,229.833 332.174,229.666 353.5,228.5C 342.052,192.052 318.052,168.385 281.5,157.5 Z M 157.5,281.5 C 168.385,318.052 192.052,342.052 228.5,353.5C 229.666,332.174 229.833,310.841 229,289.5C 226.167,287.333 223.667,284.833 221.5,282C 200.169,281.5 178.836,281.333 157.5,281.5 Z M 289.5,281.5 C 287.544,284.625 285.044,287.291 282,289.5C 281.167,310.841 281.334,332.174 282.5,353.5C 318.5,342.167 342.167,318.5 353.5,282.5C 332.177,281.5 310.844,281.167 289.5,281.5 Z"/></g>
<g><path style="opacity:0.899" fill="#000000" d="M 246.5,246.5 C 252.5,246.5 258.5,246.5 264.5,246.5C 264.5,252.5 264.5,258.5 264.5,264.5C 258.5,264.5 252.5,264.5 246.5,264.5C 246.5,258.5 246.5,252.5 246.5,246.5 Z"/></g>
</svg>
