<?xml version="1.0" encoding="UTF-8"?>
<!DOCTYPE svg PUBLIC "-//W3C//DTD SVG 1.1//EN" "http://www.w3.org/Graphics/SVG/1.1/DTD/svg11.dtd">
<svg xmlns="http://www.w3.org/2000/svg" version="1.1" width="512px" height="512px" style="shape-rendering:geometricPrecision; text-rendering:geometricPrecision; image-rendering:optimizeQuality; fill-rule:evenodd; clip-rule:evenodd" xmlns:xlink="http://www.w3.org/1999/xlink">
<g><path style="opacity:0.955" fill="#000000" d="M 248.5,92.5 C 254.262,92.1493 259.928,92.6493 265.5,94C 339.983,127.409 414.316,161.076 488.5,195C 496.396,203.216 497.563,212.382 492,222.5C 489.072,226.381 485.239,228.881 480.5,230C 470.172,230.5 459.839,230.666 449.5,230.5C 449.667,281.501 449.5,332.501 449,383.5C 445.808,401.691 435.308,413.191 417.5,418C 309.5,418.667 201.5,418.667 93.5,418C 75.6919,413.191 65.1919,401.691 62,383.5C 61.5,332.501 61.3333,281.501 61.5,230.5C 51.1613,230.666 40.828,230.5 30.5,230C 18.558,225.622 13.7246,217.122 16,204.5C 17.3019,200.726 19.4686,197.559 22.5,195C 97.7742,160.527 173.107,126.36 248.5,92.5 Z M 252.5,109.5 C 254.527,109.338 256.527,109.505 258.5,110C 330.5,142.333 402.5,174.667 474.5,207C 478.485,208.274 479.152,210.274 476.5,213C 329.167,213.667 181.833,213.667 34.5,213C 31.8481,210.274 32.5147,208.274 36.5,207C 108.709,174.725 180.709,142.225 252.5,109.5 Z M 78.5,230.5 C 196.5,230.5 314.5,230.5 432.5,230.5C 432.667,281.168 432.5,331.834 432,382.5C 429.261,391.573 423.427,397.74 414.5,401C 352.167,401.667 289.833,401.667 227.5,401C 217.181,383.533 201.848,374.033 181.5,372.5C 180.728,351.332 173.061,333.165 158.5,318C 146.702,308.717 133.369,305.384 118.5,308C 111.018,290.17 97.8509,279.003 79,274.5C 78.5001,259.837 78.3334,245.17 78.5,230.5 Z M 254.5,271.5 C 266.562,286.589 276.395,303.256 284,321.5C 289.792,340.079 283.958,353.579 266.5,362C 249.005,366.835 235.838,361.335 227,345.5C 223.386,335.577 224.053,325.91 229,316.5C 236.555,300.824 245.055,285.824 254.5,271.5 Z"/></g>
<g><path style="opacity:0.893" fill="#000000" d="M 403.5,243.5 C 408.635,242.426 412.468,244.093 415,248.5C 415.667,254.5 415.667,260.5 415,266.5C 411.574,271.438 407.074,272.605 401.5,270C 400.299,269.097 399.465,267.931 399,266.5C 398.333,260.5 398.333,254.5 399,248.5C 400.025,246.313 401.525,244.646 403.5,243.5 Z"/></g>
<g><path style="opacity:0.93" fill="#000000" d="M 251.5,247.5 C 255.257,247.071 258.757,247.737 262,249.5C 278.434,271.693 291.767,295.693 302,321.5C 306.959,349.193 296.459,368.359 270.5,379C 246.049,384.852 226.882,377.352 213,356.5C 207.477,345.326 206.143,333.659 209,321.5C 219.362,294.416 233.529,269.749 251.5,247.5 Z M 254.5,271.5 C 245.055,285.824 236.555,300.824 229,316.5C 224.053,325.91 223.386,335.577 227,345.5C 235.838,361.335 249.005,366.835 266.5,362C 283.958,353.579 289.792,340.079 284,321.5C 276.395,303.256 266.562,286.589 254.5,271.5 Z"/></g>
<g><path style="opacity:0.926" fill="#000000" d="M 404.5,280.5 C 409.421,280.043 412.921,282.043 415,286.5C 415.667,305.833 415.667,325.167 415,344.5C 413.601,348.238 410.934,349.904 407,349.5C 403.066,349.904 400.399,348.238 399,344.5C 398.333,325.167 398.333,305.833 399,286.5C 400.36,283.977 402.193,281.977 404.5,280.5 Z"/></g>
</svg>
