<?xml version="1.0" encoding="UTF-8"?>
<!DOCTYPE svg PUBLIC "-//W3C//DTD SVG 1.1//EN" "http://www.w3.org/Graphics/SVG/1.1/DTD/svg11.dtd">
<svg xmlns="http://www.w3.org/2000/svg" version="1.1" width="512px" height="512px" style="shape-rendering:geometricPrecision; text-rendering:geometricPrecision; image-rendering:optimizeQuality; fill-rule:evenodd; clip-rule:evenodd" xmlns:xlink="http://www.w3.org/1999/xlink">
<g><path style="opacity:0.988" fill="#000000" d="M 142.5,-0.5 C 217.833,-0.5 293.167,-0.5 368.5,-0.5C 368.667,23.8356 368.5,48.1689 368,72.5C 363.913,90.4211 353.079,102.088 335.5,107.5C 334.5,130.49 334.167,153.49 334.5,176.5C 357.51,176.833 380.51,176.5 403.5,175.5C 408.912,157.921 420.579,147.087 438.5,143C 462.831,142.5 487.164,142.333 511.5,142.5C 511.5,217.833 511.5,293.167 511.5,368.5C 487.164,368.667 462.831,368.5 438.5,368C 420.579,363.913 408.912,353.079 403.5,335.5C 380.51,334.5 357.51,334.167 334.5,334.5C 334.167,357.51 334.5,380.51 335.5,403.5C 353.079,408.912 363.913,420.579 368,438.5C 368.5,462.831 368.667,487.164 368.5,511.5C 293.167,511.5 217.833,511.5 142.5,511.5C 142.333,487.164 142.5,462.831 143,438.5C 147.087,420.579 157.921,408.912 175.5,403.5C 176.5,380.51 176.833,357.51 176.5,334.5C 153.49,334.167 130.49,334.5 107.5,335.5C 102.088,353.079 90.4211,363.913 72.5,368C 48.1689,368.5 23.8356,368.667 -0.5,368.5C -0.5,293.167 -0.5,217.833 -0.5,142.5C 23.8356,142.333 48.1689,142.5 72.5,143C 90.4211,147.087 102.088,157.921 107.5,175.5C 130.49,176.5 153.49,176.833 176.5,176.5C 176.833,153.49 176.5,130.49 175.5,107.5C 157.921,102.088 147.087,90.4211 143,72.5C 142.5,48.1689 142.333,23.8356 142.5,-0.5 Z M 173.5,29.5 C 228.167,29.5 282.833,29.5 337.5,29.5C 337.667,42.1711 337.5,54.8377 337,67.5C 334.719,73.7369 330.219,77.2369 323.5,78C 278.167,78.6667 232.833,78.6667 187.5,78C 180.781,77.2369 176.281,73.7369 174,67.5C 173.5,54.8377 173.333,42.1711 173.5,29.5 Z M 206.5,108.5 C 239.167,108.5 271.833,108.5 304.5,108.5C 304.667,133.836 304.5,159.169 304,184.5C 295,193.5 286,202.5 277,211.5C 276.333,212.167 276.333,212.833 277,213.5C 284.014,220.681 291.181,227.681 298.5,234.5C 307.986,225.514 317.319,216.348 326.5,207C 351.831,206.5 377.164,206.333 402.5,206.5C 402.5,239.167 402.5,271.833 402.5,304.5C 377.164,304.667 351.831,304.5 326.5,304C 317.5,295 308.5,286 299.5,277C 298.833,276.333 298.167,276.333 297.5,277C 290.319,284.014 283.319,291.181 276.5,298.5C 285.486,307.986 294.652,317.319 304,326.5C 304.5,351.831 304.667,377.164 304.5,402.5C 271.833,402.5 239.167,402.5 206.5,402.5C 206.333,377.164 206.5,351.831 207,326.5C 216,317.5 225,308.5 234,299.5C 234.667,298.833 234.667,298.167 234,297.5C 226.986,290.319 219.819,283.319 212.5,276.5C 203.014,285.486 193.681,294.652 184.5,304C 159.169,304.5 133.836,304.667 108.5,304.5C 108.5,271.833 108.5,239.167 108.5,206.5C 133.836,206.333 159.169,206.5 184.5,207C 193.5,216 202.5,225 211.5,234C 212.167,234.667 212.833,234.667 213.5,234C 220.681,226.986 227.681,219.819 234.5,212.5C 225.514,203.014 216.348,193.681 207,184.5C 206.5,159.169 206.333,133.836 206.5,108.5 Z M 29.5,173.5 C 42.1711,173.333 54.8377,173.5 67.5,174C 73.7369,176.281 77.2369,180.781 78,187.5C 78.6667,232.833 78.6667,278.167 78,323.5C 77.2369,330.219 73.7369,334.719 67.5,337C 54.8377,337.5 42.1711,337.667 29.5,337.5C 29.5,282.833 29.5,228.167 29.5,173.5 Z M 443.5,173.5 C 456.167,173.5 468.833,173.5 481.5,173.5C 481.5,228.167 481.5,282.833 481.5,337.5C 468.829,337.667 456.162,337.5 443.5,337C 438.794,335.895 435.627,333.062 434,328.5C 432.358,281.538 432.025,234.538 433,187.5C 433.878,180.696 437.378,176.029 443.5,173.5 Z M 187.5,432.5 C 234.539,432.025 281.539,432.525 328.5,434C 333.062,435.627 335.895,438.794 337,443.5C 337.5,456.162 337.667,468.829 337.5,481.5C 282.833,481.5 228.167,481.5 173.5,481.5C 173.333,468.829 173.5,456.162 174,443.5C 176.509,437.336 181.009,433.669 187.5,432.5 Z"/></g>
</svg>
