<?xml version="1.0" encoding="UTF-8"?>
<svg version="1.1" xmlns="http://www.w3.org/2000/svg" width="512" height="512">
<path d="M0 0 C1.44019732 -0.00374235 2.8803926 -0.00834619 4.32058471 -0.01373065 C8.25574519 -0.02590414 12.19082029 -0.02570688 16.12599528 -0.02334189 C20.37909465 -0.02293228 24.63216718 -0.03398671 28.88525391 -0.04345703 C37.21020479 -0.06003773 45.53512734 -0.06556528 53.86009336 -0.06668179 C60.63173846 -0.0676338 67.40337425 -0.07175172 74.1750164 -0.07808304 C93.39795832 -0.09568863 112.62087794 -0.10492315 131.84382797 -0.10342209 C133.39682015 -0.10330222 133.39682015 -0.10330222 134.98118591 -0.10317993 C136.53608723 -0.10305729 136.53608723 -0.10305729 138.12240069 -0.10293217 C154.91035467 -0.1021198 171.69821881 -0.12124687 188.48614682 -0.14945666 C205.7474913 -0.1782317 223.00879203 -0.19199437 240.27016109 -0.19026911 C249.95153438 -0.18960673 259.63281352 -0.19503198 269.31416512 -0.21662521 C277.55932914 -0.23489805 285.80435636 -0.23913459 294.04953194 -0.22560637 C298.25018101 -0.21910694 302.45056809 -0.21884887 306.65119171 -0.23631287 C339.49331144 -0.36418078 366.08139916 4.73786148 390.62449646 28.26742554 C408.59748825 47.00198477 416.95555406 69.98064642 416.891922 95.64292908 C416.89566435 97.08312639 416.90026819 98.52332168 416.90565264 99.96351379 C416.91782614 103.89867427 416.91762888 107.83374937 416.91526389 111.76892436 C416.91485428 116.02202373 416.92590871 120.27509625 416.93537903 124.52818298 C416.95195973 132.85313387 416.95748728 141.17805642 416.95860378 149.50302244 C416.95955579 156.27466754 416.96367372 163.04630333 416.97000504 169.81794548 C416.98761062 189.04088739 416.99684515 208.26380702 416.99534409 227.48675705 C416.99522422 229.03974923 416.99522422 229.03974923 416.99510193 230.62411499 C416.99502017 231.66071587 416.99493841 232.69731675 416.99485417 233.76532977 C416.9940418 250.55328375 417.01316887 267.34114789 417.04137866 284.12907589 C417.0701537 301.39042037 417.08391637 318.65172111 417.08219111 335.91309017 C417.08152873 345.59446345 417.08695398 355.27574259 417.10854721 364.95709419 C417.12682005 373.20225822 417.13105659 381.44728544 417.11752836 389.69246102 C417.11102894 393.89311008 417.11077087 398.09349717 417.12823486 402.29412079 C417.25610278 435.13624051 412.15406051 461.72432824 388.62449646 486.26742554 C369.88993723 504.24041732 346.91127558 512.59848314 321.24899292 512.53485107 C319.8087956 512.53859342 318.36860032 512.54319727 316.92840821 512.54858172 C312.99324773 512.56075522 309.05817263 512.56055795 305.12299764 512.55819297 C300.86989827 512.55778336 296.61682574 512.56883778 292.36373901 512.57830811 C284.03878813 512.5948888 275.71386558 512.60041635 267.38889956 512.60153286 C260.61725446 512.60248487 253.84561867 512.6066028 247.07397652 512.61293411 C227.8510346 512.6305397 208.62811498 512.63977423 189.40516495 512.63827316 C188.36983683 512.63819325 187.33450871 512.63811334 186.26780701 512.63803101 C185.23120613 512.63794924 184.19460525 512.63786748 183.12659223 512.63778324 C166.33863825 512.63697088 149.55077411 512.65609794 132.7628461 512.68430774 C115.50150162 512.71308278 98.24020089 512.72684545 80.97883183 512.72512019 C71.29745854 512.72445781 61.6161794 512.72988306 51.9348278 512.75147629 C43.68966378 512.76974913 35.44463656 512.77398567 27.19946098 512.76045744 C22.99881191 512.75395802 18.79842483 512.75369995 14.59780121 512.77116394 C-17.74261784 512.89711726 -44.5904459 508.0591237 -68.82081604 484.94320679 C-83.85591283 469.19543721 -95.47197788 447.30655668 -95.50972462 425.11054516 C-95.51418246 423.8898943 -95.5186403 422.66924343 -95.52323323 421.41160315 C-95.52314395 420.06538211 -95.52295413 418.71916108 -95.52267456 417.37294006 C-95.52597623 415.93619637 -95.52970244 414.49945361 -95.53381604 413.06271201 C-95.54381 409.11853629 -95.54754864 405.17437579 -95.55020535 401.2301892 C-95.55411625 396.97429949 -95.56369415 392.71842173 -95.57241821 388.46253967 C-95.59216229 378.18530031 -95.60224703 367.90806 -95.611146 357.63080642 C-95.61553299 352.78600848 -95.6208988 347.94121164 -95.62613487 343.09641457 C-95.64314644 326.98176011 -95.65763874 310.86710632 -95.66488361 294.75244427 C-95.66679338 290.5724608 -95.66871373 286.39247734 -95.67066956 282.2124939 C-95.6711533 281.17363101 -95.67163704 280.13476813 -95.67213544 279.06442455 C-95.68042874 262.25035464 -95.70575416 245.43635602 -95.73825023 228.62231722 C-95.77137198 211.34302414 -95.78933706 194.06376723 -95.79252785 176.78444225 C-95.79468841 167.08958915 -95.80337009 157.39483999 -95.82898903 147.70001793 C-95.85076616 139.44012499 -95.85871218 131.18036123 -95.84902225 122.92044284 C-95.84449754 118.71171528 -95.8462561 114.50325383 -95.86578369 110.29456329 C-96.00968697 77.42793658 -90.92431752 50.83060195 -67.37550354 26.26742554 C-48.64094431 8.29443375 -25.66228266 -0.06363206 0 0 Z M-41.52784729 59.07211304 C-53.7511568 73.59536873 -55.6976031 90.71649121 -55.62947083 109.08114624 C-55.63259081 110.39813413 -55.63571079 111.71512201 -55.63892531 113.07201862 C-55.6471878 116.68470153 -55.64318751 120.29727724 -55.63695288 123.90996027 C-55.63239395 127.82277264 -55.63942907 131.73556764 -55.64491272 135.64837646 C-55.65377191 143.29666663 -55.65190027 150.94491737 -55.64608744 158.59320903 C-55.64155722 164.81320056 -55.64096391 171.03318111 -55.64313507 177.25317383 C-55.64344154 178.14090117 -55.643748 179.02862851 -55.64406376 179.94325668 C-55.64470325 181.74706896 -55.64535168 183.55088125 -55.64600894 185.35469353 C-55.65170206 202.24006174 -55.64517035 219.12540818 -55.63440821 236.01077282 C-55.62547362 250.47621744 -55.62702595 264.94162994 -55.63624573 279.40707397 C-55.64696638 296.23504127 -55.65115283 313.06298951 -55.6450212 329.89095974 C-55.64438415 331.68786557 -55.64375541 333.48477141 -55.64313507 335.28167725 C-55.64282652 336.16562095 -55.64251797 337.04956466 -55.64220007 337.96029454 C-55.64047851 344.16754479 -55.64337657 350.37478289 -55.64809418 356.58203125 C-55.65372299 364.15412414 -55.65214468 371.7261756 -55.64153269 379.29826379 C-55.6363028 383.15622628 -55.63417307 387.01411989 -55.64083099 390.87208176 C-55.64795887 395.06601521 -55.63940636 399.25977708 -55.62947083 403.45370483 C-55.63393227 404.65626073 -55.63839371 405.85881662 -55.64299035 407.09781361 C-55.55660561 425.99455533 -51.83476719 442.39516603 -38.62550354 456.45492554 C-24.10547515 470.34004774 -5.85657504 472.59297588 13.43821716 472.52139282 C14.75520505 472.5245128 16.07219294 472.52763278 17.42908955 472.53084731 C21.04177245 472.5391098 24.65434817 472.5351095 28.26703119 472.52887487 C32.17984356 472.52431595 36.09263857 472.53135106 40.00544739 472.53683472 C47.65373755 472.54569391 55.30198829 472.54382226 62.95027995 472.53800943 C69.17027149 472.53347922 75.39025204 472.53288591 81.61024475 472.53505707 C82.49797209 472.53536353 83.38569943 472.53567 84.3003276 472.53598575 C86.10413989 472.53662525 87.90795217 472.53727368 89.71176445 472.53793094 C106.59713267 472.54362405 123.48247911 472.53709235 140.36784375 472.5263302 C154.83328836 472.51739562 169.29870086 472.51894795 183.7641449 472.52816772 C200.59211219 472.53888838 217.42006043 472.54307483 234.24803066 472.5369432 C236.0449365 472.53630615 237.84184233 472.53567741 239.63874817 472.53505707 C240.52269188 472.53474852 241.40663559 472.53443997 242.31736547 472.53412206 C248.52461572 472.53240051 254.73185381 472.53529856 260.93910217 472.54001617 C268.51119506 472.54564499 276.08324652 472.54406668 283.65533471 472.53345469 C287.5132972 472.52822479 291.37119081 472.52609507 295.22915268 472.53275299 C299.42308613 472.53988087 303.616848 472.53132835 307.81077576 472.52139282 C309.01333165 472.52585427 310.21588755 472.53031571 311.45488453 472.53491235 C330.35162626 472.44852761 346.75223696 468.72668919 360.81199646 455.51742554 C374.69711867 440.99739715 376.9500468 422.74849704 376.87846375 403.45370483 C376.88158373 402.13671695 376.88470371 400.81972906 376.88791823 399.46283245 C376.89618072 395.85014955 376.89218043 392.23757383 376.8859458 388.6248908 C376.88138687 384.71207844 376.88842199 380.79928343 376.89390564 376.88647461 C376.90276483 369.23818445 376.90089319 361.5899337 376.89508036 353.94164205 C376.89055014 347.72165051 376.88995683 341.50166996 376.89212799 335.28167725 C376.89258769 333.95008624 376.89258769 333.95008624 376.89305668 332.5915944 C376.89369617 330.78778211 376.8943446 328.98396982 376.89500186 327.18015754 C376.90069498 310.29478933 376.89416327 293.40944289 376.88340113 276.52407825 C376.87446654 262.05863364 376.87601887 247.59322113 376.88523865 233.1277771 C376.8959593 216.29980981 376.90014575 199.47186156 376.89401412 182.64389133 C376.89337707 180.8469855 376.89274833 179.05007967 376.89212799 177.25317383 C376.89181944 176.36923012 376.89151089 175.48528641 376.89119299 174.57455653 C376.88947143 168.36730628 376.89236949 162.16006819 376.8970871 155.95281982 C376.90271591 148.38072694 376.9011376 140.80867547 376.89052561 133.23658729 C376.88529572 129.37862479 376.88316599 125.52073119 376.88982391 121.66276932 C376.89695179 117.46883587 376.88839928 113.27507399 376.87846375 109.08114624 C376.88292519 107.87859035 376.88738663 106.67603445 376.89198327 105.43703747 C376.80559853 86.54029574 373.08376011 70.13968504 359.87449646 56.07992554 C345.35446807 42.19480333 327.10556796 39.9418752 307.81077576 40.01345825 C306.49378787 40.01033827 305.17679998 40.00721829 303.81990337 40.00400376 C300.20722047 39.99574128 296.59464475 39.99974157 292.98196173 40.0059762 C289.06914936 40.01053513 285.15635435 40.00350001 281.24354553 39.99801636 C273.59525537 39.98915716 265.94700463 39.99102881 258.29871297 39.99684164 C252.07872143 40.00137186 245.85874088 40.00196517 239.63874817 39.99979401 C238.75102083 39.99948754 237.86329349 39.99918107 236.94866532 39.99886532 C235.14485303 39.99822582 233.34104075 39.9975774 231.53722847 39.99692014 C214.65186025 39.99122702 197.76651381 39.99775872 180.88114917 40.00852087 C166.41570456 40.01745545 151.95029206 40.01590312 137.48484802 40.00668335 C120.65688073 39.99596269 103.82893249 39.99177625 87.00096226 39.99790788 C85.20405642 39.99854493 83.40715059 39.99917367 81.61024475 39.99979401 C80.28432919 40.00025683 80.28432919 40.00025683 78.93162745 40.00072901 C72.7243772 40.00245057 66.51713911 39.99955251 60.30989075 39.9948349 C52.73779786 39.98920608 45.1657464 39.9907844 37.59365821 40.00139639 C33.73569572 40.00662628 29.87780211 40.00875601 26.01984024 40.00209808 C21.82590679 39.99497021 17.63214492 40.00352272 13.43821716 40.01345825 C12.23566127 40.00899681 11.03310537 40.00453537 9.79410839 39.99993873 C-10.08879505 40.09083162 -27.44560157 44.34594753 -41.52784729 59.07211304 Z " fill="#000000" transform="translate(95.37550354003906,-0.267425537109375)"/>
<path d="M0 0 C3.61027284 0.46024619 6.28791 1.51194749 9.4140625 3.3359375 C10.66654785 4.05922241 10.66654785 4.05922241 11.94433594 4.79711914 C12.82895508 5.31781982 13.71357422 5.83852051 14.625 6.375 C16.49736086 7.46490383 18.36975754 8.55474614 20.2421875 9.64453125 C21.19319336 10.20092285 22.14419922 10.75731445 23.12402344 11.33056641 C25.92628021 12.95720747 28.74418583 14.55197951 31.5703125 16.13671875 C32.44220215 16.62930176 33.3140918 17.12188477 34.21240234 17.62939453 C35.87844289 18.57028909 37.54795306 19.50507148 39.22119141 20.43310547 C40.34146729 21.07143311 40.34146729 21.07143311 41.484375 21.72265625 C42.47002441 22.27578491 42.47002441 22.27578491 43.47558594 22.84008789 C45 24 45 24 46 27 C44.87939453 29.56518555 44.87939453 29.56518555 43.1328125 32.63671875 C42.4934375 33.77302734 41.8540625 34.90933594 41.1953125 36.08007812 C40.50548744 37.28271222 39.81538294 38.48518607 39.125 39.6875 C38.48046875 40.82767578 37.8359375 41.96785156 37.171875 43.14257812 C35.12216924 46.76602043 33.06088199 50.38290265 31 54 C28.03 59.28 25.06 64.56 22 70 C45.43 70 68.86 70 93 70 C93 87.16 93 104.32 93 122 C43.005 122.495 43.005 122.495 -8 123 C-15.92 137.355 -15.92 137.355 -24 152 C-27.96 158.93 -31.92 165.86 -36 173 C27.855 173.495 27.855 173.495 93 174 C93 191.49 93 208.98 93 227 C13.8 227.495 13.8 227.495 -67 228 C-74.92 242.355 -74.92 242.355 -83 257 C-91.28675933 271.88807608 -91.28675933 271.88807608 -95.42773438 279.21289062 C-96.45974127 281.04229912 -97.48724043 282.87425935 -98.50976562 284.70898438 C-99.86925523 287.14649957 -101.24449114 289.57434543 -102.625 292 C-103.01478027 292.70672852 -103.40456055 293.41345703 -103.80615234 294.14160156 C-106.46964794 298.75957938 -106.46964794 298.75957938 -108.83325195 299.83105469 C-111.79740768 300.06217534 -113.19718663 299.13369511 -115.75390625 297.640625 C-116.68251465 297.10679199 -117.61112305 296.57295898 -118.56787109 296.02294922 C-119.55609863 295.43787598 -120.54432617 294.85280273 -121.5625 294.25 C-123.08351318 293.36658936 -123.08351318 293.36658936 -124.63525391 292.46533203 C-126.73000478 291.2480014 -128.82211067 290.02610859 -130.91162109 288.79980469 C-133.82796823 287.1002544 -136.76157533 285.43752688 -139.70703125 283.7890625 C-141.42970773 282.81774422 -143.15236502 281.84639188 -144.875 280.875 C-145.68267822 280.42672852 -146.49035645 279.97845703 -147.32250977 279.51660156 C-148.05912842 279.09604492 -148.79574707 278.67548828 -149.5546875 278.2421875 C-150.19905762 277.8797998 -150.84342773 277.51741211 -151.50732422 277.14404297 C-153 276 -153 276 -154 273 C-152.91113281 270.48242188 -152.91113281 270.48242188 -151.203125 267.46875 C-150.57277344 266.34597656 -149.94242188 265.22320312 -149.29296875 264.06640625 C-148.61215515 262.87750338 -147.93116581 261.68870112 -147.25 260.5 C-146.30833984 258.82744141 -146.30833984 258.82744141 -145.34765625 257.12109375 C-139.64930435 247.03239488 -133.80532396 237.02737776 -128 227 C-152.09 227 -176.18 227 -201 227 C-201 209.51 -201 192.02 -201 174 C-193.71550781 174.19464844 -186.43101562 174.38929688 -178.92578125 174.58984375 C-174.29042176 174.66182873 -169.6569666 174.72693678 -165.02148438 174.76757812 C-157.67344498 174.83264857 -150.33173043 174.92203963 -142.98706055 175.16235352 C-117.82364838 177.54913045 -117.82364838 177.54913045 -94.59405518 170.86935425 C-89.64520726 165.63221039 -87.49628957 159.73269474 -85.77255249 152.83114624 C-84.70132727 148.90546445 -82.85240099 145.77376247 -80.703125 142.35546875 C-79.55161373 140.29974214 -78.40054621 138.24376689 -77.25 136.1875 C-76.64929688 135.11564453 -76.04859375 134.04378906 -75.4296875 132.93945312 C-74.85992187 131.92173828 -74.29015625 130.90402344 -73.703125 129.85546875 C-73.20458008 128.96496826 -72.70603516 128.07446777 -72.19238281 127.15698242 C-71.43448028 125.78596095 -70.70058777 124.40117555 -70 123 C-113.23 122.67 -156.46 122.34 -201 122 C-201 104.84 -201 87.68 -201 70 C-147.54 70 -94.08 70 -39 70 C-38.34 68.35 -37.68 66.7 -37 65 C-36.23722824 63.48972188 -35.44831997 61.99242161 -34.63671875 60.5078125 C-33.93470337 59.22064331 -33.93470337 59.22064331 -33.21850586 57.9074707 C-32.71327393 56.98925537 -32.20804199 56.07104004 -31.6875 55.125 C-31.15842041 54.15973389 -30.62934082 53.19446777 -30.08422852 52.19995117 C-22.13988936 37.74753097 -13.99241868 23.40922467 -5.75 9.125 C-5.28392334 8.31587158 -4.81784668 7.50674316 -4.33764648 6.6730957 C-3.91169189 5.93792725 -3.4857373 5.20275879 -3.046875 4.4453125 C-2.67401367 3.80094238 -2.30115234 3.15657227 -1.91699219 2.49267578 C-1 1 -1 1 0 0 Z " fill="#000000" transform="translate(310,106)"/>
</svg>
