<?xml version="1.0" encoding="UTF-8"?>
<svg version="1.1" xmlns="http://www.w3.org/2000/svg" width="512" height="512">
<path d="M0 0 C1.22589844 -0.10828125 1.22589844 -0.10828125 2.4765625 -0.21875 C9.87826984 1.61671381 16.1234293 10.10465094 21.3915863 15.38960266 C22.15725688 16.15371324 22.92292745 16.91782382 23.71180016 17.70508927 C26.25742441 20.24674887 28.79948794 22.79193896 31.34155273 25.3371582 C33.17339231 27.1676418 35.00544435 28.9979128 36.83769226 30.82798767 C41.28410745 35.26997197 45.72783429 39.71463614 50.17058109 44.16028915 C53.77981324 47.77178417 57.39002571 51.38229649 61.00093269 54.99211693 C61.77319952 55.7641539 61.77319952 55.7641539 62.56106769 56.55178758 C63.60704945 57.59744961 64.65303346 58.6431094 65.69901968 59.68876698 C75.48922822 69.47612903 85.27637788 79.26654526 95.06247265 89.05802032 C103.46300558 97.46302853 111.86616807 105.86540028 120.27124023 114.26586914 C130.03815095 124.02743319 139.80344391 133.79061092 149.56614453 143.5563857 C150.60602014 144.59657986 151.64589785 145.63677194 152.68577766 146.6769619 C153.19740156 147.18874007 153.70902546 147.70051824 154.23615311 148.22780484 C157.84562938 151.8381454 161.45626647 155.44732256 165.06735039 159.05605507 C169.91978726 163.90540148 174.76957879 168.75737992 179.61757088 173.61116982 C181.40138434 175.39631059 183.18605868 177.18059159 184.97163391 178.96397018 C187.39916609 181.38879002 189.8236293 183.81663619 192.24729919 186.24531555 C192.96264578 186.95843141 193.67799236 187.67154728 194.41501611 188.40627271 C195.05998515 189.05384949 195.70495418 189.70142627 196.36946774 190.36862659 C196.92977529 190.9290965 197.49008283 191.4895664 198.0673694 192.06702024 C200.39149113 194.61393174 200.66669753 196.76091509 200.875 200.125 C200.9471875 200.94226563 201.019375 201.75953125 201.09375 202.6015625 C199.25828619 210.00326984 190.77034906 216.2484293 185.48539734 221.5165863 C184.72128676 222.28225688 183.95717618 223.04792745 183.16991073 223.83680016 C180.62825113 226.38242441 178.08306104 228.92448794 175.5378418 231.46655273 C173.7073582 233.29839231 171.8770872 235.13044435 170.04701233 236.96269226 C165.60502803 241.40910745 161.16036386 245.85283429 156.71471085 250.29558109 C153.10321583 253.90481324 149.49270351 257.51502571 145.88288307 261.12593269 C145.36819176 261.64077724 144.85350044 262.15562179 144.32321242 262.68606769 C143.27755039 263.73204945 142.2318906 264.77803346 141.18623302 265.82401968 C131.39887097 275.61422822 121.60845474 285.40137788 111.81697968 295.18747265 C103.41197147 303.58800558 95.00959972 311.99116807 86.60913086 320.39624023 C76.84756681 330.16315095 67.08438908 339.92844391 57.3186143 349.69114453 C56.27842014 350.73102014 55.23822806 351.77089785 54.1980381 352.81077766 C53.68625993 353.32240156 53.17448176 353.83402546 52.64719516 354.36115311 C49.0368546 357.97062938 45.42767744 361.58126647 41.81894493 365.19235039 C36.96959852 370.04478726 32.11762008 374.89457879 27.26383018 379.74257088 C25.47868941 381.52638434 23.69440841 383.31105868 21.91102982 385.09663391 C19.48620998 387.52416609 17.05836381 389.9486293 14.62968445 392.37229919 C13.91656859 393.08764578 13.20345272 393.80299236 12.46872729 394.54001611 C11.82115051 395.18498515 11.17357373 395.82995418 10.50637341 396.49446774 C9.9459035 397.05477529 9.3854336 397.61508283 8.80797976 398.1923694 C6.26106826 400.51649113 4.11408491 400.79169753 0.75 401 C-0.06726563 401.0721875 -0.88453125 401.144375 -1.7265625 401.21875 C-9.12826984 399.38328619 -15.3734293 390.89534906 -20.6415863 385.61039734 C-21.40725688 384.84628676 -22.17292745 384.08217618 -22.96180016 383.29491073 C-25.50742441 380.75325113 -28.04948794 378.20806104 -30.59155273 375.6628418 C-32.42339231 373.8323582 -34.25544435 372.0020872 -36.08769226 370.17201233 C-40.53410745 365.73002803 -44.97783429 361.28536386 -49.42058109 356.83971085 C-53.02981324 353.22821583 -56.64002571 349.61770351 -60.25093269 346.00788307 C-60.76577724 345.49319176 -61.28062179 344.97850044 -61.81106769 344.44821242 C-62.85704945 343.40255039 -63.90303346 342.3568906 -64.94901968 341.31123302 C-74.73922822 331.52387097 -84.52637788 321.73345474 -94.31247265 311.94197968 C-102.71300558 303.53697147 -111.11616807 295.13459972 -119.52124023 286.73413086 C-129.28815095 276.97256681 -139.05344391 267.20938908 -148.81614453 257.4436143 C-149.85602014 256.40342014 -150.89589785 255.36322806 -151.93577766 254.3230381 C-152.44740156 253.81125993 -152.95902546 253.29948176 -153.48615311 252.77219516 C-157.09562938 249.1618546 -160.70626647 245.55267744 -164.31735039 241.94394493 C-169.16978726 237.09459852 -174.01957879 232.24262008 -178.86757088 227.38883018 C-180.65138434 225.60368941 -182.43605868 223.81940841 -184.22163391 222.03602982 C-186.64916609 219.61120998 -189.0736293 217.18336381 -191.49729919 214.75468445 C-192.21264578 214.04156859 -192.92799236 213.32845272 -193.66501611 212.59372729 C-194.30998515 211.94615051 -194.95495418 211.29857373 -195.61946774 210.63137341 C-196.17977529 210.0709035 -196.74008283 209.5104336 -197.3173694 208.93297976 C-199.64149113 206.38606826 -199.91669753 204.23908491 -200.125 200.875 C-200.23328125 199.64910156 -200.23328125 199.64910156 -200.34375 198.3984375 C-198.50828619 190.99673016 -190.02034906 184.7515707 -184.73539734 179.4834137 C-183.97128676 178.71774312 -183.20717618 177.95207255 -182.41991073 177.16319984 C-179.87825113 174.61757559 -177.33306104 172.07551206 -174.7878418 169.53344727 C-172.9573582 167.70160769 -171.1270872 165.86955565 -169.29701233 164.03730774 C-164.85502803 159.59089255 -160.41036386 155.14716571 -155.96471085 150.70441891 C-152.35321583 147.09518676 -148.74270351 143.48497429 -145.13288307 139.87406731 C-144.3608461 139.10180048 -144.3608461 139.10180048 -143.57321242 138.31393231 C-142.52755039 137.26795055 -141.4818906 136.22196654 -140.43623302 135.17598032 C-130.64887097 125.38577178 -120.85845474 115.59862212 -111.06697968 105.81252735 C-102.66197147 97.41199442 -94.25959972 89.00883193 -85.85913086 80.60375977 C-76.09756681 70.83684905 -66.33438908 61.07155609 -56.5686143 51.30885547 C-55.52842014 50.26897986 -54.48822806 49.22910215 -53.4480381 48.18922234 C-52.93625993 47.67759844 -52.42448176 47.16597454 -51.89719516 46.63884689 C-48.2868546 43.02937062 -44.67767744 39.41873353 -41.06894493 35.80764961 C-36.21959852 30.95521274 -31.36762008 26.10542121 -26.51383018 21.25742912 C-24.72868941 19.47361566 -22.94440841 17.68894132 -21.16102982 15.90336609 C-18.73620998 13.47583391 -16.30836381 11.0513707 -13.87968445 8.62770081 C-13.16656859 7.91235422 -12.45345272 7.19700764 -11.71872729 6.45998389 C-11.07115051 5.81501485 -10.42357373 5.17004582 -9.75637341 4.50553226 C-9.1959035 3.94522471 -8.6354336 3.38491717 -8.05797976 2.8076306 C-5.51106826 0.48350887 -3.36408491 0.20830247 0 0 Z M-84.5625 106.3125 C-85.85510742 107.59930664 -85.85510742 107.59930664 -87.17382812 108.91210938 C-87.99173828 109.73130859 -88.80964844 110.55050781 -89.65234375 111.39453125 C-90.39218506 112.13550049 -91.13202637 112.87646973 -91.89428711 113.63989258 C-93.9754234 115.87662236 -94.55225367 117.11808177 -95.125 120.125 C-94.23848761 126.10895864 -89.60946848 129.9684127 -84.94543457 133.5680542 C-83.9814978 134.27440002 -83.01756104 134.98074585 -82.02441406 135.70849609 C-71.79421324 143.63070776 -64.27993595 151.30444374 -62.28710938 164.52441406 C-61.08810299 174.29725988 -61.10343051 184.11905381 -61.296875 193.94873047 C-61.37485036 198.06661104 -61.33384208 202.15355613 -61.17382812 206.26904297 C-59.74113106 243.14091356 -59.74113106 243.14091356 -73.20293045 257.90160942 C-78.6868639 263.53038541 -84.6459972 268.59833977 -90.90093994 273.34677124 C-93.93001474 275.74109839 -94.42176307 276.43300614 -95.125 280.125 C-93.88993621 288.46168057 -83.5617658 295.71474887 -77.8125 301.4375 C-76.95462891 302.29923828 -76.09675781 303.16097656 -75.21289062 304.04882812 C-74.39369141 304.86673828 -73.57449219 305.68464844 -72.73046875 306.52734375 C-71.98949951 307.26718506 -71.24853027 308.00702637 -70.48510742 308.76928711 C-68.24837764 310.8504234 -67.00691823 311.42725367 -64 312 C-60.31538563 311.4541312 -59.59585438 310.89381119 -56.93701172 308.47900391 C-56.23380798 307.84117981 -55.53060425 307.20335571 -54.80609131 306.54620361 C-51.23543306 303.19636962 -47.73001957 299.78759291 -44.2578125 296.3359375 C-43.49701385 295.58083893 -42.73621521 294.82574036 -41.95236206 294.04776001 C-40.35944031 292.46421574 -38.76791394 290.87926667 -37.17773438 289.29296875 C-34.74273975 286.86776896 -32.29728248 284.45343966 -29.8515625 282.0390625 C-28.29882307 280.49284609 -26.74671704 278.94599328 -25.1953125 277.3984375 C-24.46514923 276.68062103 -23.73498596 275.96280457 -22.98269653 275.22323608 C-21.97056595 274.20660385 -21.97056595 274.20660385 -20.93798828 273.16943359 C-20.3447879 272.57987885 -19.75158752 271.9903241 -19.14041138 271.38290405 C-16.08617582 267.58800545 -15.37484615 263.86354216 -15.36430359 259.07972717 C-15.35721878 258.00451309 -15.35013397 256.92929901 -15.34283447 255.82150269 C-15.34531189 254.6520108 -15.34778931 253.48251892 -15.3503418 252.27758789 C-15.3426754 250.41826378 -15.3426754 250.41826378 -15.33485413 248.52137756 C-15.32334609 245.12873629 -15.32088285 241.73633956 -15.32341743 238.34369588 C-15.32448865 235.50824193 -15.3195999 232.67281041 -15.314812 229.83736128 C-15.30372479 223.14652124 -15.30327503 216.45573735 -15.30932617 209.76489258 C-15.31536661 202.86942407 -15.30305151 195.97415958 -15.2817561 189.07872587 C-15.2641263 183.15160323 -15.2581409 177.22454545 -15.26139385 171.29739755 C-15.2632046 167.7604193 -15.26059137 164.2235866 -15.24667931 160.68663216 C-15.23174212 156.7416092 -15.2410832 152.79684509 -15.25268555 148.85180664 C-15.24504181 147.68433899 -15.23739807 146.51687134 -15.22952271 145.31402588 C-15.28337014 137.038181 -16.61777149 132.11950398 -22.60571289 126.1628418 C-23.39986099 125.3656926 -24.19400909 124.5685434 -25.01222229 123.74723816 C-25.8654155 122.90639175 -26.7186087 122.06554535 -27.59765625 121.19921875 C-28.91593666 119.88374809 -28.91593666 119.88374809 -30.260849 118.54170227 C-32.5874472 116.22352437 -34.92064779 113.91226345 -37.25689697 111.6038208 C-39.63714062 109.24733999 -42.00610666 106.87960594 -44.37695312 104.51367188 C-46.17906403 102.72072729 -47.98177764 100.92838825 -49.78515625 99.13671875 C-50.64037369 98.28575119 -51.49559113 97.43478363 -52.37672424 96.55802917 C-53.56321815 95.38594658 -53.56321815 95.38594658 -54.77368164 94.19018555 C-55.47078751 93.49990768 -56.16789337 92.80962982 -56.88612366 92.09843445 C-59.05353201 90.10607876 -60.34551289 89.55323564 -63.25 89 C-71.58668057 90.23506379 -78.83974887 100.5632342 -84.5625 106.3125 Z M57.68701172 92.52099609 C56.98380798 93.15882019 56.28060425 93.79664429 55.55609131 94.45379639 C51.98543306 97.80363038 48.48001957 101.21240709 45.0078125 104.6640625 C44.24701385 105.41916107 43.48621521 106.17425964 42.70236206 106.95223999 C41.10944031 108.53578426 39.51791394 110.12073333 37.92773438 111.70703125 C35.49273975 114.13223104 33.04728248 116.54656034 30.6015625 118.9609375 C29.04882307 120.50715391 27.49671704 122.05400672 25.9453125 123.6015625 C25.21514923 124.31937897 24.48498596 125.03719543 23.73269653 125.77676392 C23.05794281 126.45451874 22.38318909 127.13227356 21.68798828 127.83056641 C21.0947879 128.42012115 20.50158752 129.0096759 19.89041138 129.61709595 C16.83617582 133.41199455 16.12484615 137.13645784 16.11430359 141.92027283 C16.10721878 142.99548691 16.10013397 144.07070099 16.09283447 145.17849731 C16.09531189 146.3479892 16.09778931 147.51748108 16.1003418 148.72241211 C16.09523087 149.96196152 16.09011993 151.20151093 16.08485413 152.47862244 C16.07334609 155.87126371 16.07088285 159.26366044 16.07341743 162.65630412 C16.07448865 165.49175807 16.0695999 168.32718959 16.064812 171.16263872 C16.05372479 177.85347876 16.05327503 184.54426265 16.05932617 191.23510742 C16.06536661 198.13057593 16.05305151 205.02584042 16.0317561 211.92127413 C16.0141263 217.84839677 16.0081409 223.77545455 16.01139385 229.70260245 C16.0132046 233.2395807 16.01059137 236.7764134 15.99667931 240.31336784 C15.98174212 244.2583908 15.9910832 248.20315491 16.00268555 252.14819336 C15.99504181 253.31566101 15.98739807 254.48312866 15.97952271 255.68597412 C16.03337014 263.961819 17.36777149 268.88049602 23.35571289 274.8371582 C24.14986099 275.6343074 24.94400909 276.4314566 25.76222229 277.25276184 C26.6154155 278.09360825 27.4686087 278.93445465 28.34765625 279.80078125 C29.22650986 280.67776169 30.10536346 281.55474213 31.010849 282.45829773 C33.3374472 284.77647563 35.67064779 287.08773655 38.00689697 289.3961792 C40.38714062 291.75266001 42.75610666 294.12039406 45.12695312 296.48632812 C46.92906403 298.27927271 48.73177764 300.07161175 50.53515625 301.86328125 C51.81798241 303.13973259 51.81798241 303.13973259 53.12672424 304.44197083 C54.31321815 305.61405342 54.31321815 305.61405342 55.52368164 306.80981445 C56.22078751 307.50009232 56.91789337 308.19037018 57.63612366 308.90156555 C59.80353201 310.89392124 61.09551289 311.44676436 64 312 C72.33668057 310.76493621 79.58974887 300.4367658 85.3125 294.6875 C86.17423828 293.82962891 87.03597656 292.97175781 87.92382812 292.08789062 C88.74173828 291.26869141 89.55964844 290.44949219 90.40234375 289.60546875 C91.51210571 288.49401489 91.51210571 288.49401489 92.64428711 287.36010742 C94.7254234 285.12337764 95.30225367 283.88191823 95.875 280.875 C94.98848761 274.89104136 90.35946848 271.0315873 85.69543457 267.4319458 C84.7314978 266.72559998 83.76756104 266.01925415 82.77441406 265.29150391 C72.54421324 257.36929224 65.02993595 249.69555626 63.03710938 236.47558594 C61.83810299 226.70274012 61.85343051 216.88094619 62.046875 207.05126953 C62.12485036 202.93338896 62.08384208 198.84644387 61.92382812 194.73095703 C60.49113106 157.85908644 60.49113106 157.85908644 73.95293045 143.09839058 C79.4368639 137.46961459 85.3959972 132.40166023 91.65093994 127.65322876 C94.68001474 125.25890161 95.17176307 124.56699386 95.875 120.875 C94.63993621 112.53831943 84.3117658 105.28525113 78.5625 99.5625 C77.27569336 98.26989258 77.27569336 98.26989258 75.96289062 96.95117188 C75.14369141 96.13326172 74.32449219 95.31535156 73.48046875 94.47265625 C72.73949951 93.73281494 71.99853027 92.99297363 71.23510742 92.23071289 C68.99837764 90.1495766 67.75691823 89.57274633 64.75 89 C61.06538563 89.5458688 60.34585438 90.10618881 57.68701172 92.52099609 Z " fill="#000000" transform="translate(255.625,55.5)"/>
<path d="M0 0 C7.90680782 4.48021918 14.23042142 11.5192042 20.6038208 17.89414978 C21.43271151 18.7193638 22.26160223 19.54457783 23.11561084 20.39479834 C25.3947275 22.66486442 27.67164272 24.93711073 29.94757271 27.2103709 C32.41069367 29.66955779 34.87663007 32.1259191 37.34213257 34.5827179 C43.28069036 40.50161048 49.21448955 46.4252624 55.14767849 52.34953603 C57.94616142 55.14362453 60.74512834 57.93722811 63.54402924 60.7308979 C72.85218728 70.02206272 82.15909689 79.31447542 91.4623909 88.61051083 C93.8707511 91.01696139 96.27911667 93.42340657 98.6875 95.82983398 C99.28603093 96.42788117 99.88456186 97.02592836 100.50123009 97.6420982 C110.21035973 107.34291651 119.92798501 117.03517779 129.6491653 126.72391861 C139.64171821 136.6833987 149.6267236 146.65039505 159.60435176 156.62482744 C165.20193403 162.22024613 170.80275354 167.8123377 176.41202545 173.39603996 C181.18501352 178.14731906 185.9511147 182.90537327 190.7083979 187.67237919 C193.13424782 190.10277157 195.56319438 192.52983664 198.00101089 194.94823074 C200.64472755 197.57428863 203.27581316 200.21239248 205.90411377 202.85386658 C206.672977 203.61176056 207.44184023 204.36965455 208.23400235 205.15051502 C216.21642279 213.22986283 219.30329014 220.90994509 219.31469727 232.24609375 C219.04526282 246.40335915 208.99146523 254.59549736 199.54335022 264.0413208 C198.30552918 265.28465687 198.30552918 265.28465687 197.04270166 266.55311084 C194.77263558 268.8322275 192.50038927 271.10914272 190.2271291 273.38507271 C187.76794221 275.84819367 185.3115809 278.31413007 182.8547821 280.77963257 C176.93588952 286.71819036 171.0122376 292.65198955 165.08796397 298.58517849 C162.29387547 301.38366142 159.50027189 304.18262834 156.7066021 306.98152924 C147.41543728 316.28968728 138.12302458 325.59659689 128.82698917 334.8998909 C126.42053861 337.3082511 124.01409343 339.71661667 121.60766602 342.125 C121.00961883 342.72353093 120.41157164 343.32206186 119.7954018 343.93873009 C110.09458349 353.64785973 100.40232221 363.36548501 90.71358139 373.0866653 C80.7541013 383.07921821 70.78710495 393.0642236 60.81267256 403.04185176 C55.21725387 408.63943403 49.6251623 414.24025354 44.04146004 419.84952545 C39.29018094 424.62251352 34.53212673 429.3886147 29.76512081 434.1458979 C27.33472843 436.57174782 24.90766336 439.00069438 22.48926926 441.43851089 C19.86321137 444.08222755 17.22510752 446.71331316 14.58363342 449.34161377 C13.82573944 450.110477 13.06784545 450.87934023 12.28698498 451.67150235 C4.81341352 459.05541391 -2.07315562 462.52773277 -12.625 462.75 C-28.15285072 462.58892271 -36.21743327 453.36456615 -46.59709167 443.0010376 C-47.42527682 442.17794027 -48.25346197 441.35484294 -49.10674363 440.50680327 C-51.38392174 438.24252418 -53.65891633 435.97607895 -55.93291366 433.70860624 C-57.88877627 431.75915981 -59.84645587 429.81154305 -61.80414721 427.86393335 C-68.24500039 421.4562237 -74.68011469 415.04276747 -81.11360952 408.62767088 C-82.78964378 406.95644044 -84.46576705 405.28529931 -86.14190888 403.61417675 C-96.56787138 393.21917209 -106.99168656 382.8220172 -117.41057873 372.41992569 C-119.81787893 370.01657438 -122.22520621 367.6132502 -124.63256836 365.20996094 C-125.23083698 364.61270068 -125.8291056 364.01544042 -126.44550357 363.40008137 C-136.14472011 353.71788453 -145.85593074 344.04780916 -155.57201251 334.38253978 C-165.56264644 324.4437233 -175.54187958 314.49357156 -185.51026326 304.53243804 C-191.10135657 298.94599926 -196.69735415 293.36467411 -202.30629539 287.79615021 C-207.08044611 283.05636252 -211.84421681 278.30644212 -216.59489652 273.54312494 C-219.01636644 271.11584475 -221.44234651 268.69359741 -223.88180542 266.28438568 C-226.52996455 263.6639342 -229.15884346 261.02550329 -231.78385925 258.38189697 C-232.54980964 257.63274151 -233.31576003 256.88358605 -234.10492104 256.11172891 C-240.05045262 250.0607972 -244.85059176 242.84524553 -245.62890625 234.1796875 C-245.3277972 216.64451365 -237.52826363 208.81568576 -225.54335022 196.8336792 C-224.30552918 195.59034313 -224.30552918 195.59034313 -223.04270166 194.32188916 C-220.77263558 192.0427725 -218.50038927 189.76585728 -216.2271291 187.48992729 C-213.76794221 185.02680633 -211.3115809 182.56086993 -208.8547821 180.09536743 C-202.93588952 174.15680964 -197.0122376 168.22301045 -191.08796397 162.28982151 C-188.29387547 159.49133858 -185.50027189 156.69237166 -182.7066021 153.89347076 C-173.41543728 144.58531272 -164.12302458 135.27840311 -154.82698917 125.9751091 C-152.42053861 123.5667489 -150.01409343 121.15838333 -147.60766602 118.75 C-147.00961883 118.15146907 -146.41157164 117.55293814 -145.7954018 116.93626991 C-136.09458349 107.22714027 -126.40232221 97.50951499 -116.71358139 87.7883347 C-106.7541013 77.79578179 -96.78710495 67.8107764 -86.81267256 57.83314824 C-81.21725387 52.23556597 -75.6251623 46.63474646 -70.04146004 41.02547455 C-65.29018094 36.25248648 -60.53212673 31.4863853 -55.76512081 26.7291021 C-53.33472843 24.30325218 -50.90766336 21.87430562 -48.48926926 19.43648911 C-45.86321137 16.79277245 -43.22510752 14.16168684 -40.58363342 11.53338623 C-39.82573944 10.764523 -39.06784545 9.99565977 -38.28698498 9.20349765 C-28.3223728 -0.64156978 -13.60071255 -5.58345042 0 0 Z M-44.02763367 34.31123352 C-44.79456553 35.07378313 -45.56149739 35.83633273 -46.35166961 36.62198991 C-48.90176053 39.1588055 -51.44833804 41.69911722 -53.99487305 44.23950195 C-55.83010661 46.06682613 -57.66551982 47.89396989 -59.50109863 49.72094727 C-64.99040737 55.18586784 -70.47489177 60.65561707 -75.95848414 66.12627271 C-77.50894928 67.67301842 -79.05954075 69.21963738 -80.61017632 70.76621222 C-90.25720868 80.38801992 -99.90264597 90.01142351 -109.5433073 99.63961506 C-111.77014423 101.86352279 -113.99699743 104.08741422 -116.22387695 106.3112793 C-116.77728635 106.86394264 -117.33069575 107.41660599 -117.90087513 107.98601671 C-126.87399362 116.94647041 -135.85735453 125.89658282 -144.84493139 134.8425319 C-154.0879009 144.04304272 -163.32138219 153.25299112 -172.54575759 162.47214478 C-177.71897042 167.64194994 -182.89624235 172.80754089 -188.08423424 177.96251869 C-192.96216836 182.80945984 -197.82717004 187.6690591 -202.68373871 192.53740692 C-204.46559045 194.31947942 -206.25171208 196.09729455 -208.0424366 197.87045097 C-210.49116549 200.29646137 -212.92387718 202.73751063 -215.35331726 205.18281555 C-216.06090343 205.87651963 -216.76848959 206.57022371 -217.49751776 207.28494912 C-223.08487699 212.96229576 -227.23447611 219.18659089 -228.6640625 227.125 C-228.65117187 228.218125 -228.63828125 229.31125 -228.625 230.4375 C-228.64433594 232.0771875 -228.64433594 232.0771875 -228.6640625 233.75 C-227.00129659 242.9832413 -221.66026473 249.5118505 -215.13899231 255.9334259 C-214.35365024 256.72656793 -213.56830817 257.51970995 -212.75916785 258.33688658 C-210.14259389 260.9732945 -207.50864507 263.5915962 -204.87426758 266.21020508 C-202.98725583 268.10399669 -201.10124143 269.99873642 -199.21636963 271.89465332 C-194.63682659 276.49636127 -190.04395187 281.08453247 -185.44606016 285.66789959 C-181.70755953 289.39508133 -177.97400055 293.12714749 -174.24387169 296.86270714 C-173.71179165 297.39555334 -173.17971161 297.92839955 -172.63150793 298.47739261 C-171.55042077 299.56007849 -170.4693448 300.64277553 -169.38827988 301.72548362 C-159.26447828 311.86352295 -149.12544352 321.98621578 -138.98108353 332.10367813 C-130.28817069 340.77425402 -121.60845024 349.45785515 -112.93823242 358.15112305 C-102.85551219 368.26063621 -92.76468495 378.36194317 -82.66089362 388.45040053 C-81.58232103 389.52738047 -80.50375883 390.60437082 -79.42520714 391.68137169 C-78.89461592 392.21119153 -78.36402469 392.74101138 -77.81735495 393.28688637 C-74.08937778 397.01055702 -70.3672122 400.73997603 -66.64728737 404.47168922 C-62.1101427 409.02289627 -57.56411688 413.5650064 -53.00667808 418.09589479 C-50.68420268 420.40528215 -48.36720155 422.71971295 -46.058218 425.04260063 C-43.54886533 427.56566456 -41.02453596 430.07274922 -38.4959259 432.57649231 C-37.41830489 433.67084373 -37.41830489 433.67084373 -36.31891376 434.78730327 C-30.56984742 440.42759275 -24.34604952 444.65484278 -16.3125 446.1015625 C-15.219375 446.08867187 -14.12625 446.07578125 -13 446.0625 C-11.3603125 446.08183594 -11.3603125 446.08183594 -9.6875 446.1015625 C-0.4542587 444.43879659 6.0743505 439.09776473 12.4959259 432.57649231 C13.28906793 431.79115024 14.08220995 431.00580817 14.89938658 430.19666785 C17.5357945 427.58009389 20.1540962 424.94614507 22.77270508 422.31176758 C24.66649669 420.42475583 26.56123642 418.53874143 28.45715332 416.65386963 C33.05886127 412.07432659 37.64703247 407.48145187 42.23039959 402.88356016 C45.95758133 399.14505953 49.68964749 395.41150055 53.42520714 391.68137169 C53.95805334 391.14929165 54.49089955 390.61721161 55.03989261 390.06900793 C56.12257849 388.98792077 57.20527553 387.9068448 58.28798362 386.82577988 C68.42602295 376.70197828 78.54871578 366.56294352 88.66617813 356.41858353 C97.33675402 347.72567069 106.02035515 339.04595024 114.71362305 330.37573242 C124.82313621 320.29301219 134.92444317 310.20218495 145.01290053 300.09839362 C146.08988047 299.01982103 147.16687082 297.94125883 148.24387169 296.86270714 C148.77369153 296.33211592 149.30351138 295.80152469 149.84938637 295.25485495 C153.57305702 291.52687778 157.30247603 287.8047122 161.03418922 284.08478737 C165.58539627 279.5476427 170.1275064 275.00161688 174.65839479 270.44417808 C176.96778215 268.12170268 179.28221295 265.80470155 181.60510063 263.495718 C184.12816456 260.98636533 186.63524922 258.46203596 189.13899231 255.9334259 C190.23334373 254.85580489 190.23334373 254.85580489 191.34980327 253.75641376 C196.99009275 248.00734742 201.21734278 241.78354952 202.6640625 233.75 C202.65117187 232.656875 202.63828125 231.56375 202.625 230.4375 C202.64433594 228.7978125 202.64433594 228.7978125 202.6640625 227.125 C201.00001817 217.88465971 195.65444939 211.35803982 189.12553406 204.93484497 C188.33878085 204.14099738 187.55202765 203.34714979 186.74143344 202.52924621 C184.12018909 199.89049655 181.48156788 197.26986994 178.8425293 194.64892578 C176.95226492 192.75351987 175.06300188 190.85716167 173.17489624 188.95960999 C168.58791525 184.35430732 163.98767004 179.76248227 159.38253673 175.1753387 C155.63907945 171.44593858 151.90075213 167.71146621 148.16599464 163.97335434 C147.63333716 163.44021941 147.10067967 162.90708448 146.55188105 162.35779395 C145.46965913 161.27454564 144.3874517 160.19128286 143.30525861 159.10800575 C133.74865372 149.54284519 124.17950827 139.99032789 114.60375977 130.44433594 C105.320597 121.19001995 96.0483981 111.92488796 86.78735352 102.6484375 C76.69030174 92.53461205 66.58690404 82.42720263 56.47271663 72.33051097 C55.39362383 71.25326248 54.31453582 70.1760092 53.23545265 69.09875107 C52.43914368 68.30381023 52.43914368 68.30381023 51.62674766 67.49280999 C47.89291809 63.76457761 44.16354989 60.03191817 40.43582726 56.29758072 C35.89164851 51.74565834 31.34027034 47.20108072 26.77967533 42.66560383 C24.45468468 40.35308288 22.13404265 38.0364848 19.81980705 35.71319389 C17.30748102 33.19217242 14.78315477 30.68380793 12.25541687 28.17825317 C11.16905733 27.07953249 11.16905733 27.07953249 10.06075114 25.95861542 C3.54790572 19.55078775 -3.25707044 15.3549621 -12.625 15.125 C-26.60565331 15.29344161 -34.72702333 25.01722824 -44.02763367 34.31123352 Z " fill="#000000" transform="translate(269,25.5625)"/>
<path d="M0 0 C3.85027991 1.78200687 6.2799142 4.07675405 9.25 7.125 C10.14203125 8.03507813 11.0340625 8.94515625 11.953125 9.8828125 C12.62859375 10.58148438 13.3040625 11.28015625 14 12 C12.41175582 15.96652306 9.64597326 18.56113668 6.625 21.46484375 C5.54675743 22.52266663 4.46863614 23.58061315 3.390625 24.63867188 C1.69455611 26.29125811 -0.00391 27.94128627 -1.70507812 29.58862305 C-3.35155497 31.18668813 -4.98860926 32.79396157 -6.625 34.40234375 C-7.13337402 34.88895981 -7.64174805 35.37557587 -8.16552734 35.87693787 C-13.17378335 40.81457635 -14.22222645 44.82912252 -14.28216553 51.6477356 C-14.27968811 52.51800385 -14.27721069 53.38827209 -14.2746582 54.28491211 C-14.27976913 55.21234726 -14.28488007 56.13978241 -14.29014587 57.09532166 C-14.30402728 60.15606163 -14.30308623 63.21657607 -14.30078125 66.27734375 C-14.30466886 68.40816837 -14.30900366 70.53899222 -14.31376648 72.66981506 C-14.32122549 77.13431308 -14.32093962 81.59873201 -14.31567383 86.06323242 C-14.30987842 91.78085923 -14.32681363 97.49816218 -14.3500185 103.21573544 C-14.36475858 107.61582834 -14.36562718 112.01584328 -14.36250877 116.4159565 C-14.3630218 118.52385665 -14.36825613 120.63176119 -14.37832069 122.73963737 C-14.39067343 125.68853614 -14.38390028 128.6368045 -14.37231445 131.58569336 C-14.37995819 132.45393738 -14.38760193 133.3221814 -14.39547729 134.21673584 C-14.33089634 141.66320286 -12.18902946 146.15327893 -6.84846497 151.49142456 C-6.31710434 152.00730133 -5.78574371 152.5231781 -5.23828125 153.0546875 C-4.68762497 153.60109894 -4.13696869 154.14751038 -3.56962585 154.71047974 C-1.82421724 156.43921202 -0.06863009 158.15716708 1.6875 159.875 C2.8789456 161.05138451 4.06970819 162.2284612 5.25976562 163.40625 C8.16533809 166.27889996 11.08008092 169.14193689 14 172 C12.21799313 175.85027991 9.92324595 178.2799142 6.875 181.25 C5.96492188 182.14203125 5.05484375 183.0340625 4.1171875 183.953125 C3.41851562 184.62859375 2.71984375 185.3040625 2 186 C-11.30325695 179.90491182 -24.60776387 168.20715281 -31 155 C-36.67951244 137.46504381 -35.26782175 117.68436771 -34.84157133 99.43663955 C-34.74031921 94.52589397 -34.79322635 89.63361334 -34.93164062 84.72412109 C-36.32221532 34.27787788 -36.32221532 34.27787788 -21.76504898 17.88387108 C-15.19426391 11.06839504 -7.8617039 5.24782384 0 0 Z " fill="#000000" transform="translate(319,163)"/>
<path d="M0 0 C13.30325695 6.09508818 26.60776387 17.79284719 33 31 C38.67951244 48.53495619 37.26782175 68.31563229 36.84157133 86.56336045 C36.74031921 91.47410603 36.79322635 96.36638666 36.93164062 101.27587891 C38.32221532 151.72212212 38.32221532 151.72212212 23.76504898 168.11612892 C17.19426391 174.93160496 9.8617039 180.75217616 2 186 C-1.85027991 184.21799313 -4.2799142 181.92324595 -7.25 178.875 C-8.14203125 177.96492187 -9.0340625 177.05484375 -9.953125 176.1171875 C-10.96632812 175.06917969 -10.96632812 175.06917969 -12 174 C-10.41175582 170.03347694 -7.64597326 167.43886332 -4.625 164.53515625 C-3.54675743 163.47733337 -2.46863614 162.41938685 -1.390625 161.36132812 C0.30544389 159.70874189 2.00391 158.05871373 3.70507812 156.41137695 C5.35155497 154.81331187 6.98860926 153.20603843 8.625 151.59765625 C9.13337402 151.11104019 9.64174805 150.62442413 10.16552734 150.12306213 C15.17378335 145.18542365 16.22222645 141.17087748 16.28216553 134.3522644 C16.27968811 133.48199615 16.27721069 132.61172791 16.2746582 131.71508789 C16.27976913 130.78765274 16.28488007 129.86021759 16.29014587 128.90467834 C16.30402728 125.84393837 16.30308623 122.78342393 16.30078125 119.72265625 C16.30466886 117.59183163 16.30900366 115.46100778 16.31376648 113.33018494 C16.32122549 108.86568692 16.32093962 104.40126799 16.31567383 99.93676758 C16.30987842 94.21914077 16.32681363 88.50183782 16.3500185 82.78426456 C16.36475858 78.38417166 16.36562718 73.98415672 16.36250877 69.5840435 C16.3630218 67.47614335 16.36825613 65.36823881 16.37832069 63.26036263 C16.39067343 60.31146386 16.38390028 57.3631955 16.37231445 54.41430664 C16.37995819 53.54606262 16.38760193 52.6778186 16.39547729 51.78326416 C16.33089634 44.33679714 14.18902946 39.84672107 8.84846497 34.50857544 C8.31710434 33.99269867 7.78574371 33.4768219 7.23828125 32.9453125 C6.68762497 32.39890106 6.13696869 31.85248962 5.56962585 31.28952026 C3.82421724 29.56078798 2.06863009 27.84283292 0.3125 26.125 C-0.8789456 24.94861549 -2.06970819 23.7715388 -3.25976562 22.59375 C-6.16533809 19.72110004 -9.08008092 16.85806311 -12 14 C-10.21799313 10.14972009 -7.92324595 7.7200858 -4.875 4.75 C-3.96492187 3.85796875 -3.05484375 2.9659375 -2.1171875 2.046875 C-1.41851562 1.37140625 -0.71984375 0.6959375 0 0 Z " fill="#000000" transform="translate(191,163)"/>
</svg>
