<?xml version="1.0" encoding="UTF-8"?>
<!DOCTYPE svg PUBLIC "-//W3C//DTD SVG 1.1//EN" "http://www.w3.org/Graphics/SVG/1.1/DTD/svg11.dtd">
<svg xmlns="http://www.w3.org/2000/svg" version="1.1" width="512px" height="512px" style="shape-rendering:geometricPrecision; text-rendering:geometricPrecision; image-rendering:optimizeQuality; fill-rule:evenodd; clip-rule:evenodd" xmlns:xlink="http://www.w3.org/1999/xlink">
<g><path style="opacity:0.967" fill="#000000" d="M 511.5,69.5 C 511.5,208.833 511.5,348.167 511.5,487.5C 507.833,499.833 499.833,507.833 487.5,511.5C 411.167,511.5 334.833,511.5 258.5,511.5C 243.012,506.563 234.678,495.897 233.5,479.5C 241.167,479.5 248.833,479.5 256.5,479.5C 256.345,484.023 258.345,487.189 262.5,489C 335.833,489.667 409.167,489.667 482.5,489C 486,488.167 488.167,486 489,482.5C 489.499,478.179 489.666,473.846 489.5,469.5C 425.5,469.5 361.5,469.5 297.5,469.5C 297.5,462.167 297.5,454.833 297.5,447.5C 361.5,447.5 425.5,447.5 489.5,447.5C 489.667,392.832 489.5,338.166 489,283.5C 475.88,298.405 460.046,302.238 441.5,295C 435.208,290.377 429.208,285.377 423.5,280C 418.167,276.667 412.833,276.667 407.5,280C 402.167,284.667 396.833,289.333 391.5,294C 372.4,302.599 355.9,299.099 342,283.5C 342.513,290.001 340.013,294.834 334.5,298C 296.167,298.667 257.833,298.667 219.5,298C 216.667,296.5 214.5,294.333 213,291.5C 212.333,274.5 212.333,257.5 213,240.5C 214.122,238.376 215.622,236.543 217.5,235C 222.736,233.661 228.07,233.161 233.5,233.5C 235.985,216.216 228.652,209.716 211.5,214C 207.023,224.904 199.023,231.57 187.5,234C 171,234.167 154.5,234.333 138,234.5C 120.117,234.64 102.283,234.14 84.5,233C 75.2219,229.224 68.8886,222.724 65.5,213.5C 50.8333,213.5 36.1667,213.5 21.5,213.5C 21.5,227.5 21.5,241.5 21.5,255.5C 14.1667,255.5 6.83333,255.5 -0.5,255.5C -0.5,198.5 -0.5,141.5 -0.5,84.5C 6.83333,84.5 14.1667,84.5 21.5,84.5C 21.5,98.8333 21.5,113.167 21.5,127.5C 35.8372,127.667 50.1705,127.5 64.5,127C 68.3589,117.808 74.8589,111.308 84,107.5C 84.3333,98.5 84.6667,89.5 85,80.5C 86.1217,78.3762 87.6217,76.5429 89.5,75C 102.092,73.5589 114.759,73.0589 127.5,73.5C 127.5,63.1667 127.5,52.8333 127.5,42.5C 106.167,42.5 84.8333,42.5 63.5,42.5C 63.5,35.1667 63.5,27.8333 63.5,20.5C 84.8333,20.5 106.167,20.5 127.5,20.5C 127.5,16.8333 127.5,13.1667 127.5,9.5C 134.833,9.5 142.167,9.5 149.5,9.5C 149.5,13.1667 149.5,16.8333 149.5,20.5C 170.833,20.5 192.167,20.5 213.5,20.5C 213.5,27.8333 213.5,35.1667 213.5,42.5C 192.167,42.5 170.833,42.5 149.5,42.5C 149.5,52.8333 149.5,63.1667 149.5,73.5C 161.909,73.0606 174.242,73.5606 186.5,75C 188,76.5 189.5,78 191,79.5C 191.168,88.8511 191.668,98.1845 192.5,107.5C 201.167,111.5 207.5,117.833 211.5,126.5C 228.534,127.073 245.534,127.906 262.5,129C 293.715,137.593 312.549,157.76 319,189.5C 319.5,204.163 319.667,218.83 319.5,233.5C 337.524,230.692 345.024,238.359 342,256.5C 346.07,258.234 349.903,260.4 353.5,263C 357.533,267.368 361.866,271.368 366.5,275C 371.32,277.087 375.987,276.754 380.5,274C 385.023,270.233 389.357,266.233 393.5,262C 405.151,254.961 417.485,253.627 430.5,258C 437.744,262.573 444.41,267.907 450.5,274C 455.532,277.232 460.532,277.232 465.5,274C 469.8,270.702 473.8,267.035 477.5,263C 480.934,260.565 484.6,258.565 488.5,257C 489.498,199.905 489.831,142.738 489.5,85.5C 411.5,85.5 333.5,85.5 255.5,85.5C 255.5,92.5 255.5,99.5 255.5,106.5C 248.167,106.5 240.833,106.5 233.5,106.5C 233.333,94.8286 233.5,83.1619 234,71.5C 234.979,68.3749 236.813,65.8749 239.5,64C 328.167,63.3333 416.833,63.3333 505.5,64C 508.023,65.3597 510.023,67.193 511.5,69.5 Z M 106.5,95.5 C 127.5,95.5 148.5,95.5 169.5,95.5C 169.5,98.8333 169.5,102.167 169.5,105.5C 148.5,105.5 127.5,105.5 106.5,105.5C 106.5,102.167 106.5,98.8333 106.5,95.5 Z M 95.5,127.5 C 124.169,127.333 152.835,127.5 181.5,128C 187.118,129.285 190.285,132.785 191,138.5C 191.667,159.5 191.667,180.5 191,201.5C 190.578,206.519 188.078,210.019 183.5,212C 152.439,212.977 121.439,212.644 90.5,211C 88.6217,209.457 87.1217,207.624 86,205.5C 85.3333,181.833 85.3333,158.167 86,134.5C 88.0863,130.555 91.253,128.221 95.5,127.5 Z M 21.5,149.5 C 35.5,149.5 49.5,149.5 63.5,149.5C 63.5,163.5 63.5,177.5 63.5,191.5C 49.5,191.5 35.5,191.5 21.5,191.5C 21.5,177.5 21.5,163.5 21.5,149.5 Z M 213.5,149.5 C 228.217,149.087 242.884,149.587 257.5,151C 277.667,156.5 290.5,169.333 296,189.5C 296.975,209.855 297.975,230.189 299,250.5C 300.167,252.333 301.667,253.833 303.5,255C 308.823,255.499 314.156,255.666 319.5,255.5C 319.5,262.5 319.5,269.5 319.5,276.5C 291.167,276.5 262.833,276.5 234.5,276.5C 234.5,269.5 234.5,262.5 234.5,255.5C 248.833,255.5 263.167,255.5 277.5,255.5C 277.5,248.167 277.5,240.833 277.5,233.5C 270.167,233.5 262.833,233.5 255.5,233.5C 257.833,203.167 243.833,189.167 213.5,191.5C 213.5,177.5 213.5,163.5 213.5,149.5 Z"/></g>
<g><path style="opacity:0.94" fill="#000000" d="M 372.5,105.5 C 379.833,105.5 387.167,105.5 394.5,105.5C 394.5,112.833 394.5,120.167 394.5,127.5C 387.167,127.5 379.833,127.5 372.5,127.5C 372.5,120.167 372.5,112.833 372.5,105.5 Z"/></g>
<g><path style="opacity:0.957" fill="#000000" d="M 415.5,105.5 C 456.5,100.5 474.5,118.5 469.5,159.5C 462.167,159.5 454.833,159.5 447.5,159.5C 447.666,152.492 447.5,145.492 447,138.5C 446.285,132.785 443.118,129.285 437.5,128C 430.174,127.5 422.841,127.334 415.5,127.5C 415.5,120.167 415.5,112.833 415.5,105.5 Z"/></g>
<g><path style="opacity:0.946" fill="#000000" d="M 144.5,308.5 C 148.792,308.035 152.792,308.868 156.5,311C 165.767,321.598 174.267,332.765 182,344.5C 185.832,351.162 188.832,358.162 191,365.5C 193.583,390.84 182.749,407.34 158.5,415C 134.618,418.48 117.785,409.314 108,387.5C 103.775,373.28 105.775,359.947 114,347.5C 122.749,333.304 132.916,320.304 144.5,308.5 Z M 148.5,337.5 C 154.134,344.076 159.3,351.076 164,358.5C 172.233,370.128 171.067,380.628 160.5,390C 147.572,396.687 137.406,393.854 130,381.5C 128.543,377.259 128.209,372.926 129,368.5C 134.01,357.127 140.51,346.793 148.5,337.5 Z"/></g>
<g><path style="opacity:0.948" fill="#000000" d="M 315.5,308.5 C 318.978,308.184 322.312,308.684 325.5,310C 341.832,326.17 353.999,345.003 362,366.5C 363.801,391.689 352.634,407.855 328.5,415C 301.36,418.17 284.194,406.67 277,380.5C 275.506,369.809 277.506,359.809 283,350.5C 288.838,340.821 295.172,331.487 302,322.5C 306.031,317.304 310.531,312.637 315.5,308.5 Z M 318.5,337.5 C 328.979,347.6 336.313,359.767 340.5,374C 335.646,391.927 324.646,397.26 307.5,390C 302.369,385.868 299.369,380.535 298.5,374C 299.683,368.13 301.85,362.63 305,357.5C 309.747,350.934 314.247,344.268 318.5,337.5 Z"/></g>
<g><path style="opacity:0.945" fill="#000000" d="M 231.5,361.5 C 235.131,361.16 238.464,361.994 241.5,364C 253.943,377.445 264.443,392.279 273,408.5C 282.218,433.85 275.051,453.017 251.5,466C 232.212,472.743 215.378,468.91 201,454.5C 188.688,436.481 188.355,418.148 200,399.5C 207.973,386.188 217.473,374.021 228.5,363C 229.737,362.768 230.737,362.268 231.5,361.5 Z M 233.5,390.5 C 243.859,400.881 250.859,413.214 254.5,427.5C 252.806,439.36 245.973,446.027 234,447.5C 218.492,444.786 212.158,435.786 215,420.5C 220.202,409.821 226.369,399.821 233.5,390.5 Z"/></g>
</svg>
