<?xml version="1.0" encoding="UTF-8"?>
<svg version="1.1" xmlns="http://www.w3.org/2000/svg" width="512" height="512">
<path d="M0 0 C5.58097556 3.59701898 10.16124361 7.72322471 14.81583786 12.43240738 C15.65742581 13.26775536 16.49901375 14.10310335 17.36610436 14.96376491 C19.67233255 17.25691011 21.96952521 19.5586598 24.26297069 21.8645761 C26.74925689 24.35998136 29.24711137 26.84376384 31.74343491 29.32912064 C36.62093626 34.18890479 41.48764633 39.05935638 46.35047832 43.93381462 C50.30542457 47.8978218 54.26429107 51.85787422 58.2259407 55.81518173 C58.79137831 56.3800064 59.35681591 56.94483108 59.93938799 57.52677165 C61.08834711 58.67445177 62.23731515 59.82212295 63.38629201 60.9697853 C74.14100211 71.71310952 84.88345383 82.46862371 95.62170294 93.2283977 C104.82102931 102.44559321 114.03079215 111.65225138 123.24827194 120.85129166 C133.97150145 131.55307921 144.68816601 142.26137187 155.3945477 152.98001647 C156.53783043 154.1245733 157.68112148 155.26912183 158.82442093 156.41366196 C159.38683368 156.97669181 159.94924644 157.53972167 160.52870201 158.11981304 C164.47828672 162.07284068 168.43247154 166.02123001 172.38849258 169.9678154 C177.2143329 174.78239733 182.03289954 179.60412279 186.84249201 184.4349378 C189.2930996 186.89600432 191.74669739 189.3538642 194.20919228 191.80304146 C196.88458093 194.46744167 199.54725459 197.14395462 202.20719528 199.8237648 C202.97694648 200.58459311 203.74669767 201.34542141 204.53977466 202.12930512 C215.50655124 213.25468742 222.08419762 225.17928164 222.25754929 240.88205338 C222.06922554 257.94104617 214.13880675 270.14704065 202.20719528 281.94034195 C201.3718473 282.7819299 200.53649931 283.62351784 199.67583776 284.49060845 C197.38269255 286.79683664 195.08094286 289.09402929 192.77502656 291.38747478 C190.2796213 293.87376098 187.79583882 296.37161546 185.31048203 298.867939 C180.45069787 303.74544035 175.58024628 308.61215042 170.70578805 313.47498241 C166.74178086 317.42992866 162.78172844 321.38879516 158.82442093 325.35044479 C158.25959626 325.9158824 157.69477158 326.48132 157.11283101 327.06389208 C155.96515089 328.2128512 154.81747971 329.36181924 153.66981736 330.5107961 C142.92649314 341.2655062 132.17097895 352.00795792 121.41120496 362.74620703 C112.19400945 371.9455334 102.98735128 381.15529624 93.788311 390.37277603 C83.08652346 401.09600554 72.37823079 411.8126701 61.65958619 422.51905179 C60.51502936 423.66233452 59.37048083 424.80562557 58.2259407 425.94892502 C57.66291085 426.51133777 57.09988099 427.07375053 56.51978962 427.6532061 C52.56676198 431.60279081 48.61837265 435.55697563 44.67178726 439.51299667 C39.85720533 444.33883699 35.03547987 449.15740363 30.20466486 453.9669961 C27.74359835 456.41760369 25.28573846 458.87120148 22.8365612 461.33369637 C20.172161 464.00908502 17.49564804 466.67175867 14.81583786 469.33169937 C13.6745954 470.48632616 13.6745954 470.48632616 12.51029754 471.66427875 C1.38491524 482.63105533 -10.53967898 489.20870171 -26.24245071 489.38205338 C-43.30144351 489.19372963 -55.50743799 481.26331084 -67.30073929 469.33169937 C-68.14232723 468.49635139 -68.98391518 467.6610034 -69.85100579 466.80034184 C-72.15723397 464.50719664 -74.45442663 462.20544695 -76.74787211 459.89953065 C-79.23415832 457.40412539 -81.7320128 454.92034291 -84.22833633 452.43498611 C-89.10583769 447.57520196 -93.97254776 442.70475037 -98.83537975 437.83029214 C-102.790326 433.86628495 -106.7491925 429.90623253 -110.71084213 425.94892502 C-111.27627974 425.38410035 -111.84171734 424.81927567 -112.42428942 424.2373351 C-113.57324854 423.08965498 -114.72221658 421.9419838 -115.87119344 420.79432145 C-126.62590354 410.05099723 -137.36835526 399.29548304 -148.10660437 388.53570905 C-157.30593074 379.31851354 -166.51569357 370.11185537 -175.73317337 360.91281509 C-186.45640288 350.21102755 -197.17306744 339.50273488 -207.87944913 328.78409028 C-209.02273186 327.63953345 -210.16602291 326.49498492 -211.30932236 325.35044479 C-211.87173511 324.78741494 -212.43414787 324.22438508 -213.01360343 323.64429371 C-216.96318814 319.69126607 -220.91737297 315.74287674 -224.87339401 311.79629135 C-229.69923433 306.98170942 -234.51780097 302.15998396 -239.32739344 297.32916895 C-241.77800103 294.86810243 -244.23159882 292.41024255 -246.6940937 289.96106529 C-249.36948236 287.29666508 -252.03215601 284.62015213 -254.69209671 281.94034195 C-255.8467235 280.79909949 -255.8467235 280.79909949 -257.02467608 279.63480163 C-267.99145267 268.50941933 -274.56909905 256.58482511 -274.74245071 240.88205338 C-274.55405824 223.81683545 -266.6196308 211.60929112 -254.67863846 199.81703568 C-253.42349979 198.55359541 -253.42349979 198.55359541 -252.14300478 197.26463109 C-249.8460006 194.95646396 -247.54038514 192.65734667 -245.23060989 190.36197293 C-242.73113184 187.87368761 -240.24329921 185.37380231 -237.75391006 182.87543106 C-232.88669062 177.99433418 -228.00886761 173.1239711 -223.12716605 168.25736263 C-217.43519471 162.58231587 -211.75334298 156.89718136 -206.07169752 151.21180002 C-195.93064733 141.06488152 -185.77963315 130.92798924 -175.62331009 120.79636002 C-165.78109374 110.97807089 -155.94734654 101.15139568 -146.12233353 91.31589127 C-135.40621371 80.58834891 -124.68535228 69.86558653 -113.95631063 59.15096647 C-112.8112336 58.00741518 -111.66615926 56.8638612 -110.52108765 55.72030449 C-109.95777636 55.15775102 -109.39446508 54.59519755 -108.81408376 54.01559701 C-104.85520295 50.06144795 -100.89961281 46.1040254 -96.94522858 42.14538002 C-92.12360924 37.31882201 -87.29653469 32.49779757 -82.46256353 27.68360927 C-79.99897398 25.22985582 -77.53777153 22.7738343 -75.08305168 20.31120491 C-72.41566231 17.6378432 -69.73917921 14.97392365 -67.06023026 12.31215286 C-66.29357627 11.53948883 -65.52692228 10.76682479 -64.73703635 9.9707467 C-46.7394088 -7.81814209 -22.36739169 -13.80351546 0 0 Z M-58.84627151 29.33870316 C-59.67516223 30.16391718 -60.50405294 30.9891312 -61.35806155 31.83935171 C-63.63717821 34.1094178 -65.91409343 36.38166411 -68.19002342 38.65492427 C-70.65314438 41.11411117 -73.11908078 43.57047248 -75.58458328 46.02727127 C-81.52314107 51.94616386 -87.45694026 57.86981578 -93.39012921 63.79408941 C-96.18861213 66.58817791 -98.98757905 69.38178148 -101.78647995 72.17545128 C-111.094638 81.46661609 -120.4015476 90.75902879 -129.70484161 100.0550642 C-132.11320181 102.46151477 -134.52156738 104.86795995 -136.92995071 107.27438736 C-137.82774711 108.17145814 -137.82774711 108.17145814 -138.7436808 109.08665157 C-148.45281044 118.78746989 -158.17043572 128.47973117 -167.89161602 138.16847198 C-177.88416892 148.12795207 -187.86917432 158.09494842 -197.84680247 168.06938082 C-203.44438474 173.66479951 -209.04520425 179.25689108 -214.65447617 184.84059334 C-219.42746423 189.59187244 -224.19356542 194.34992665 -228.95084861 199.11693256 C-231.37669853 201.54732494 -233.8056451 203.97439001 -236.24346161 206.39278412 C-238.88717826 209.018842 -241.51826388 211.65694586 -244.14656448 214.29841995 C-244.91542772 215.05631394 -245.68429095 215.81420792 -246.47645307 216.5950684 C-253.38993315 223.59249613 -257.34713539 230.46629197 -257.55495071 240.50705338 C-257.40097958 255.47304747 -247.79256919 263.48153298 -237.78580093 273.48587418 C-236.96058691 274.31476489 -236.13537289 275.1436556 -235.28515238 275.99766421 C-233.01508629 278.27678087 -230.74283998 280.5536961 -228.46957982 282.82962608 C-226.01039292 285.29274704 -223.55403161 287.75868344 -221.09723282 290.22418594 C-215.17834023 296.16274373 -209.25468831 302.09654292 -203.33041468 308.02973187 C-200.53632618 310.8282148 -197.74272261 313.62718171 -194.94905281 316.42608261 C-185.657888 325.73424066 -176.3654753 335.04115026 -167.06943989 344.34444427 C-164.66298932 346.75280447 -162.25654414 349.16117004 -159.85011673 351.56955338 C-159.25206954 352.16808431 -158.65402235 352.76661524 -158.03785252 353.38328347 C-148.3370342 363.0924131 -138.64477292 372.81003838 -128.9560321 382.53121868 C-118.99655201 392.52377158 -109.02955566 402.50877698 -99.05512327 412.48640513 C-93.45970458 418.0839874 -87.86761301 423.68480691 -82.28391075 429.29407883 C-77.53263165 434.0670669 -72.77457744 438.83316808 -68.00757153 443.59045127 C-65.57717915 446.01630119 -63.15011408 448.44524776 -60.73171997 450.88306427 C-58.10566209 453.52678093 -55.46755823 456.15786654 -52.82608414 458.78616714 C-52.06819015 459.55503038 -51.31029616 460.32389361 -50.52943569 461.11605573 C-43.53200796 468.02953581 -36.65821212 471.98673805 -26.61745071 472.19455338 C-11.65145662 472.04058224 -3.64297111 462.43217185 6.36137009 452.42540359 C7.60470616 451.18758256 7.60470616 451.18758256 8.87316012 449.92475504 C11.15227678 447.65468896 13.42919201 445.38244264 15.70512199 443.10918248 C18.16824295 440.64999558 20.63417935 438.19363427 23.09968185 435.73683548 C29.03823965 429.81794289 34.97203883 423.89429097 40.90522778 417.97001734 C43.70371071 415.17592885 46.50267762 412.38232527 49.30157852 409.58865547 C58.60973657 400.29749066 67.91664617 391.00507796 77.21994019 381.70904255 C79.62830038 379.30259198 82.03666595 376.8961468 84.44504929 374.48971939 C85.04358022 373.8916722 85.64211115 373.29362501 86.25877938 372.67745518 C95.96790901 362.97663686 105.68553429 353.28437558 115.40671459 343.59563477 C125.39926749 333.63615468 135.38427289 323.66915833 145.36190104 313.69472593 C150.95948331 308.09930724 156.56030282 302.50721567 162.16957474 296.92351341 C166.94256281 292.17223431 171.70866399 287.4141801 176.46594718 282.64717419 C178.8917971 280.21678181 181.32074367 277.78971674 183.75856018 275.37132263 C186.40227684 272.74526475 189.03336245 270.10716089 191.66166306 267.4656868 C192.43052629 266.70779281 193.19938952 265.94989883 193.99155164 265.16903836 C200.90503172 258.17161062 204.86223396 251.29781478 205.07004929 241.25705338 C204.91607815 226.29105928 195.30766777 218.28257377 185.30089951 208.27823257 C184.47568548 207.44934186 183.65047146 206.62045115 182.80025095 205.76644254 C180.53018487 203.48732588 178.25793855 201.21041065 175.98467839 198.93448067 C173.52549149 196.47135971 171.06913018 194.00542331 168.61233139 191.53992081 C162.6934388 185.60136302 156.76978688 179.66756383 150.84551325 173.73437488 C148.05142476 170.93589195 145.25782118 168.13692504 142.46415138 165.33802414 C133.17298657 156.02986609 123.88057387 146.72295649 114.58453846 137.41966248 C112.1780879 135.01130228 109.77164271 132.60293671 107.3652153 130.19455338 C106.76716811 129.59602245 106.16912092 128.99749152 105.55295109 128.38082328 C95.85213277 118.67169365 86.15987149 108.95406837 76.47113068 99.23288807 C66.51165059 89.24033517 56.54465424 79.25532977 46.57022184 69.27770162 C40.97480315 63.68011935 35.38271159 58.07929984 29.79900932 52.47002792 C25.04773022 47.69703986 20.28967601 42.93093867 15.5226701 38.17365548 C13.09227772 35.74780556 10.66521265 33.31885899 8.24681854 30.88104248 C5.62076066 28.23732583 2.9826568 25.60624021 0.34118271 22.97793961 C-0.41671128 22.20907637 -1.17460526 21.44021314 -1.95546573 20.64805102 C-8.95289347 13.73457094 -15.82668931 9.7773687 -25.86745071 9.56955338 C-40.83344481 9.72352451 -48.84193032 19.3319349 -58.84627151 29.33870316 Z " fill="#000000" transform="translate(282.2424507141113,15.11794662475586)"/>
<path d="M0 0 C9.7145439 7.40253193 18.13953496 16.96958727 26.76904297 25.57617188 C28.44856328 27.24777747 30.12826071 28.91920514 31.80812073 30.59046936 C37.28985784 36.04617331 42.76631139 41.50716433 48.2421875 46.96875 C49.65867563 48.3812201 51.0751638 49.79369016 52.49166944 51.20614269 C60.8306538 59.52145834 69.16789456 67.8385191 77.5009594 76.15976715 C79.53186986 78.18774865 81.56279674 80.21571371 83.59375 82.24365234 C84.3507863 82.99956957 84.3507863 82.99956957 85.12311627 83.77075785 C93.31434179 91.94930643 101.51581008 100.11750425 109.72146867 108.28156918 C118.16557361 116.68322408 126.60019583 125.09430628 135.02571404 133.51460123 C139.74893862 138.23441849 144.47651127 142.94974035 149.21422958 147.65501404 C153.66574013 152.07646794 158.1052461 156.50963012 162.53585625 160.95202446 C164.16171211 162.57810116 165.7918418 164.19991775 167.42656517 165.81707954 C169.66097039 168.02878277 171.87933117 170.25545644 174.0944519 172.4864502 C175.0647713 173.43594646 175.0647713 173.43594646 176.0546931 174.40462446 C182.07019774 180.52657269 185.57268101 187.21237327 185.5625 195.9375 C185.58441406 197.03964844 185.60632813 198.14179688 185.62890625 199.27734375 C184.11544171 208.23592578 178.98807528 214.75122504 172.66375732 220.97116089 C171.93487942 221.70783875 171.20600152 222.4445166 170.4550364 223.20351803 C168.0295817 225.64878585 165.58680685 228.07594294 163.14355469 230.50341797 C161.39285846 232.26089489 159.6432265 234.01943252 157.89457703 235.77894592 C153.64733771 240.04657079 149.38859937 244.3023907 145.12390819 248.55255155 C141.65665911 252.00847849 138.19435788 255.46929155 134.73548126 258.93359756 C134.24196756 259.42787744 133.74845385 259.92215731 133.23998518 260.43141536 C132.2372503 261.43574897 131.23452659 262.44009375 130.23181394 263.44444956 C120.84436177 272.84613559 111.44168745 282.23247719 102.03367689 291.61358477 C93.97093248 299.65398561 85.92139671 307.70741486 77.88134766 315.77050781 C68.53073541 325.14790788 59.17202686 334.51710472 49.80034375 343.8734504 C48.80014601 344.8720555 47.79995865 345.870671 46.7997818 346.86929703 C46.30774741 347.36056004 45.81571302 347.85182305 45.3087685 348.35797282 C41.8508277 351.81160609 38.39870298 355.27098729 34.94881439 358.7326622 C30.30178861 363.3952157 25.64157555 368.04429497 20.97236061 372.6846447 C19.26247555 374.38792758 17.55681424 376.09546289 15.85575676 377.80756187 C13.52995444 380.14706321 11.18923582 382.47056459 8.84417725 384.79074097 C8.17732367 385.46874815 7.5104701 386.14675533 6.82340884 386.84530818 C0.5937784 392.94769689 -6.05194168 396.57286821 -14.9375 396.5625 C-16.03964844 396.58441406 -17.14179688 396.60632813 -18.27734375 396.62890625 C-27.19140487 395.12296308 -33.70113715 390.03865905 -39.88850403 383.73968506 C-40.98021181 382.65861886 -40.98021181 382.65861886 -42.09397429 381.55571294 C-44.50927888 379.15789233 -46.90645154 376.74275757 -49.30395508 374.32714844 C-51.04009696 372.59614894 -52.77730817 370.8662214 -54.51550293 369.13728333 C-58.73123858 364.93811185 -62.93525762 360.72743648 -67.13370273 356.5109953 C-70.54796909 353.08266423 -73.96731339 349.65947414 -77.39029503 346.23984528 C-77.87873545 345.75188229 -78.36717588 345.26391931 -78.87041753 344.76116957 C-79.86290811 343.76970538 -80.85541317 342.77825569 -81.84793254 341.78682032 C-90.60999168 333.03331505 -99.35940802 324.26727912 -108.10229492 315.49462891 C-116.57373942 306.99434581 -125.0559832 298.5050235 -133.54956055 290.02685547 C-142.81337238 280.77982749 -152.0707493 271.52644116 -161.31742781 262.26227784 C-162.30454168 261.27331971 -163.29166033 260.28436634 -164.2787838 259.29541779 C-164.76437788 258.80891162 -165.24997196 258.32240545 -165.75028101 257.82115667 C-169.16245472 254.40339148 -172.57904551 250.99008092 -175.99732399 247.57842255 C-180.60262291 242.98168942 -185.19701592 238.37423012 -189.7843399 233.75955772 C-191.46711978 232.0699049 -193.15328666 230.38361737 -194.84310722 228.70100594 C-197.15360711 226.39922778 -199.45137436 224.08542843 -201.74641418 221.76824951 C-202.41372663 221.10917783 -203.08103907 220.45010616 -203.76857311 219.77106261 C-210.28438411 213.1392127 -215.07944502 205.86892386 -215.3125 196.375 C-215.05540242 178.54956786 -197.3055665 166.14422254 -185.62329102 154.43041992 C-183.97301227 152.77222614 -182.32291131 151.11385541 -180.67297363 149.45532227 C-175.28700679 144.04332365 -169.89575471 138.63660674 -164.50390625 133.23046875 C-162.64150831 131.36270564 -160.77911655 129.49493637 -158.91673088 127.62716103 C-151.17146301 119.86030292 -143.42484456 112.09479624 -135.67434788 104.33315563 C-133.67146929 102.32734812 -131.66860717 100.32152418 -129.66577148 98.31567383 C-129.16807021 97.8172265 -128.67036893 97.31877917 -128.15758579 96.80522738 C-120.08317472 88.7181436 -112.01911443 80.62081854 -103.95919443 72.51929494 C-95.66263601 64.18026617 -87.35663155 55.85073959 -79.04142135 47.53030854 C-74.3814901 42.86672778 -69.72581883 38.19907393 -65.08032417 33.52110863 C-60.71387455 29.12457049 -56.33568093 24.74007636 -51.94828033 20.36444855 C-50.34358697 18.75997576 -48.74314266 17.15123992 -47.14737511 15.53788948 C-44.96232048 13.33008109 -42.76223609 11.1383852 -40.55787659 8.94987488 C-39.93557382 8.31369002 -39.31327105 7.67750516 -38.67211062 7.02204198 C-27.45958081 -3.99392467 -14.20504043 -7.1006527 0 0 Z M-45.43359375 38.30419922 C-47.07691658 39.94616507 -48.72045165 41.58791854 -50.36418152 43.22947693 C-54.80186591 47.66262484 -59.23640851 52.09890285 -63.67023468 56.53590918 C-68.31625313 61.18446784 -72.96472045 65.83057666 -77.61279297 70.4770813 C-85.90708329 78.76924074 -94.19865865 87.06411023 -102.48933506 95.35988273 C-110.00661281 102.88163786 -117.52652304 110.40075281 -125.04833984 117.91796875 C-133.79751149 126.66179126 -142.54500434 135.40728767 -151.29002285 144.15526402 C-155.91447111 148.78127251 -160.53959534 153.40659971 -165.16647339 158.03017807 C-169.5091338 162.36995715 -173.84935465 166.71216115 -178.18767738 171.05627632 C-179.78240414 172.65232869 -181.3779887 174.24752447 -182.97447777 175.84181404 C-185.14757185 178.01218922 -187.317584 180.18559895 -189.48681641 182.35983276 C-190.44252863 183.31219891 -190.44252863 183.31219891 -191.41754818 184.28380477 C-191.99709035 184.86595469 -192.57663252 185.44810461 -193.17373657 186.04789543 C-193.67486277 186.54918398 -194.17598896 187.05047252 -194.6923008 187.56695163 C-197.59970469 190.75304396 -198.7677235 193.3951223 -198.60696602 197.73826599 C-195.87608455 207.914334 -180.01101925 219.12855169 -172.69580078 226.43359375 C-171.05383493 228.07691658 -169.41208146 229.72045165 -167.77052307 231.36418152 C-163.33737516 235.80186591 -158.90109715 240.23640851 -154.46409082 244.67023468 C-149.81553216 249.31625313 -145.16942334 253.96472045 -140.5229187 258.61279297 C-132.23075926 266.90708329 -123.93588977 275.19865865 -115.64011727 283.48933506 C-108.11836214 291.00661281 -100.59924719 298.52652304 -93.08203125 306.04833984 C-84.33820874 314.79751149 -75.59271233 323.54500434 -66.84473598 332.29002285 C-62.21872749 336.91447111 -57.59340029 341.53959534 -52.96982193 346.16647339 C-48.63004285 350.5091338 -44.28783885 354.84935465 -39.94372368 359.18767738 C-38.34767131 360.78240414 -36.75247553 362.3779887 -35.15818596 363.97447777 C-32.98781078 366.14757185 -30.81440105 368.317584 -28.64016724 370.48681641 C-28.00525647 371.12395789 -27.37034571 371.76109938 -26.71619523 372.41754818 C-26.13404531 372.99709035 -25.55189539 373.57663252 -24.95210457 374.17373657 C-24.45081602 374.67486277 -23.94952748 375.17598896 -23.43304837 375.6923008 C-20.24695604 378.59970469 -17.6048777 379.7677235 -13.26173401 379.60696602 C-3.085666 376.87608455 8.12855169 361.01101925 15.43359375 353.69580078 C17.07691658 352.05383493 18.72045165 350.41208146 20.36418152 348.77052307 C24.80186591 344.33737516 29.23640851 339.90109715 33.67023468 335.46409082 C38.31625313 330.81553216 42.96472045 326.16942334 47.61279297 321.5229187 C55.90708329 313.23075926 64.19865865 304.93588977 72.48933506 296.64011727 C80.00661281 289.11836214 87.52652304 281.59924719 95.04833984 274.08203125 C103.79751149 265.33820874 112.54500434 256.59271233 121.29002285 247.84473598 C125.91447111 243.21872749 130.53959534 238.59340029 135.16647339 233.96982193 C139.5091338 229.63004285 143.84935465 225.28783885 148.18767738 220.94372368 C149.78240414 219.34767131 151.3779887 217.75247553 152.97447777 216.15818596 C155.14757185 213.98781078 157.317584 211.81440105 159.48681641 209.64016724 C160.12395789 209.00525647 160.76109938 208.37034571 161.41754818 207.71619523 C161.99709035 207.13404531 162.57663252 206.55189539 163.17373657 205.95210457 C163.67486277 205.45081602 164.17598896 204.94952748 164.6923008 204.43304837 C167.59970469 201.24695604 168.7677235 198.6048777 168.60696602 194.26173401 C165.87608455 184.085666 150.01101925 172.87144831 142.69580078 165.56640625 C141.05383493 163.92308342 139.41208146 162.27954835 137.77052307 160.63581848 C133.33737516 156.19813409 128.90109715 151.76359149 124.46409082 147.32976532 C119.81553216 142.68374687 115.16942334 138.03527955 110.5229187 133.38720703 C102.23075926 125.09291671 93.93588977 116.80134135 85.64011727 108.51066494 C78.11836214 100.99338719 70.59924719 93.47347696 63.08203125 85.95166016 C54.33820874 77.20248851 45.59271233 68.45499566 36.84473598 59.70997715 C32.21872749 55.08552889 27.59340029 50.46040466 22.96982193 45.83352661 C18.63004285 41.4908662 14.28783885 37.15064535 9.94372368 32.81232262 C8.34767131 31.21759586 6.75247553 29.6220113 5.15818596 28.02552223 C2.98781078 25.85242815 0.81440105 23.682416 -1.35983276 21.51318359 C-2.31219891 20.55747137 -2.31219891 20.55747137 -3.28380477 19.58245182 C-3.86595469 19.00290965 -4.44810461 18.42336748 -5.04789543 17.82626343 C-5.54918398 17.32513723 -6.05047252 16.82401104 -6.56695163 16.3076992 C-9.75304396 13.40029531 -12.3951223 12.2322765 -16.73826599 12.39303398 C-26.914334 15.12391545 -38.12855169 30.98898075 -45.43359375 38.30419922 Z " fill="#000000" transform="translate(271,60)"/>
<path d="M0 0 C0.93050171 -0.00700928 1.86100342 -0.01401855 2.81970215 -0.02124023 C5.89572993 -0.03884649 8.97083785 -0.02718794 12.046875 -0.01367188 C14.18392107 -0.01636603 16.32096594 -0.0202478 18.45800781 -0.02526855 C22.93696767 -0.03116718 27.41560847 -0.02258871 31.89453125 -0.00390625 C37.63829952 0.01888325 43.3813202 0.00576216 49.12506104 -0.01819611 C53.53798057 -0.03264409 57.9507226 -0.02805263 62.36364746 -0.01768494 C64.48156828 -0.0150149 66.59950517 -0.01829712 68.71740723 -0.02760315 C71.67662295 -0.03775205 74.63462479 -0.02229048 77.59375 0 C78.47075562 -0.00809692 79.34776123 -0.01619385 80.25134277 -0.02453613 C83.96879026 0.0273913 86.16187474 0.11661658 89.35087585 2.13026428 C91.29556967 5.34091242 91.24093293 7.48906119 91.13598633 11.23217773 C91.12024724 11.88974784 91.10450815 12.54731794 91.08829212 13.22481441 C90.85358573 20.86938135 90.13551303 28.47755658 89.37109375 36.08398438 C89.221044 37.61756049 89.07129537 39.15116609 88.92182922 40.68479919 C88.6099177 43.86599259 88.29234213 47.04655798 87.97094727 50.22680664 C87.56104914 54.29043416 87.16894222 58.35556664 86.78132915 62.42137241 C86.47815521 65.57498207 86.16403261 68.72743035 85.84678078 71.87965202 C85.69753324 73.3787153 85.55202213 74.87815576 85.41043663 76.37796211 C85.21166762 78.46952473 84.99774024 80.55901716 84.7800293 82.64868164 C84.66233688 83.83365738 84.54464447 85.01863312 84.42338562 86.23951721 C83.73941061 89.81824625 82.70752328 92.41942061 80.796875 95.51757812 C77.07741293 97.27204136 75.01548165 97.95015711 71.08984375 96.55664062 C66.54952667 93.74519873 63.11745539 90.15597283 59.421875 86.33007812 C58.68582031 85.58048828 57.94976562 84.83089844 57.19140625 84.05859375 C55.38620857 82.21822989 53.58841992 80.3712189 51.796875 78.51757812 C42.55790342 82.83645993 35.09384254 92.45658136 30.796875 101.51757812 C28.07513089 109.03477615 27.64914874 116.77570493 27.6550293 124.70605469 C27.64981766 125.86859772 27.64981766 125.86859772 27.64450073 127.05462646 C27.63720046 128.72202096 27.63182491 130.3894248 27.62821007 132.05683136 C27.62098861 134.69663712 27.60528477 137.33626298 27.58686829 139.97601318 C27.53463232 147.47584739 27.48635957 154.97557323 27.47094727 162.47558594 C27.46087814 167.07561409 27.4315974 171.67517365 27.38962746 176.27501678 C27.37731386 178.02447725 27.37219686 179.77400379 27.37442589 181.52350616 C27.3767737 183.96507652 27.3546597 186.40529226 27.3269043 188.84667969 C27.33350571 189.56778931 27.34010712 190.28889893 27.34690857 191.03186035 C27.2856551 194.30916832 26.98742774 196.24124073 25.10945129 198.96466064 C22.27401416 200.86868427 20.66624064 201.02404405 17.265625 201.03515625 C16.15767578 201.04776489 15.04972656 201.06037354 13.90820312 201.07336426 C12.71646484 201.06526733 11.52472656 201.05717041 10.296875 201.04882812 C8.45512695 201.05456848 8.45512695 201.05456848 6.57617188 201.0604248 C3.98046041 201.06314654 1.38472164 201.05576724 -1.2109375 201.0390625 C-5.18812099 201.01765887 -9.16349782 201.03885775 -13.140625 201.06445312 C-15.66146233 201.0618099 -18.18229853 201.05668503 -20.703125 201.04882812 C-21.89486328 201.05692505 -23.08660156 201.06502197 -24.31445312 201.07336426 C-25.97637695 201.05445129 -25.97637695 201.05445129 -27.671875 201.03515625 C-29.13270508 201.03038269 -29.13270508 201.03038269 -30.62304688 201.0255127 C-34.09745117 200.34151401 -35.20488612 199.44304427 -37.203125 196.51757812 C-37.59292057 193.7175816 -37.74064564 191.31237835 -37.70483398 188.51464844 C-37.71023697 187.71071152 -37.71563995 186.9067746 -37.72120667 186.07847595 C-37.73372207 183.41717793 -37.71716713 180.75695726 -37.69921875 178.09570312 C-37.69937385 176.23402856 -37.70086473 174.37235367 -37.70362854 172.51068115 C-37.70501441 168.59991244 -37.69243745 164.68950955 -37.66967773 160.77880859 C-37.6415289 155.80978187 -37.64396315 150.84137376 -37.65676785 145.87230301 C-37.66379344 142.01992697 -37.6558543 138.16768891 -37.64351082 134.31533051 C-37.63904592 132.4864429 -37.63861524 130.65754019 -37.64257622 128.82865143 C-37.68584921 91.21075379 -23.13059367 61.64611796 3.12109375 35.17382812 C3.67410156 34.62726563 4.22710937 34.08070313 4.796875 33.51757812 C3.41090633 30.38352145 1.80616344 28.29923631 -0.64453125 25.91601562 C-1.31033203 25.26117188 -1.97613281 24.60632813 -2.66210938 23.93164062 C-3.70334961 22.92230469 -3.70334961 22.92230469 -4.765625 21.89257812 C-6.14411037 20.54845943 -7.52051901 19.20220659 -8.89453125 17.85351562 C-9.50498291 17.26103027 -10.11543457 16.66854492 -10.74438477 16.05810547 C-13.50575054 13.14191835 -13.41278455 10.50789107 -13.62890625 6.58789062 C-12.16019522 -0.55354831 -5.87440052 -0.0542352 0 0 Z M15.796875 16.51757812 C19.88538188 21.32681198 19.88538188 21.32681198 24.171875 25.95507812 C25.98288976 28.81090909 26.55260859 31.03137044 26.37426758 34.42578125 C25.65749278 37.02253662 24.55938952 38.31426384 22.74609375 40.29882812 C21.79391968 41.3416394 21.79391968 41.3416394 20.82250977 42.40551758 C18.25558755 45.08196016 15.62087152 47.67651521 12.94921875 50.24804688 C-9.87151304 72.2773082 -20.38954137 98.51495624 -21.30279541 129.94812012 C-21.4436077 138.88811927 -21.38653799 147.82708477 -21.328125 156.76757812 C-21.31690469 159.47069719 -21.30871822 162.17382263 -21.30078125 164.87695312 C-21.28072291 171.423995 -21.2415367 177.97051692 -21.203125 184.51757812 C-10.643125 184.51757812 -0.083125 184.51757812 10.796875 184.51757812 C10.81145752 182.24786133 10.82604004 179.97814453 10.84106445 177.63964844 C10.89163658 170.09985361 10.95827005 162.56026043 11.03258991 155.02066422 C11.07711956 150.45406138 11.11641293 145.8875442 11.14331055 141.32080078 C11.1695186 136.90506019 11.21004148 132.48965233 11.26006126 128.07411957 C11.27661261 126.39826377 11.28819931 124.72235059 11.29448891 123.04642487 C11.38275702 101.66811869 17.03198972 86.38140675 32.24169922 71.09619141 C33.78192886 69.53274951 35.27837042 67.93634787 36.76953125 66.32617188 C37.71522071 65.32659789 38.66179658 64.32786158 39.609375 63.33007812 C40.44082031 62.44964844 41.27226562 61.56921875 42.12890625 60.66210938 C45.28359708 58.12634764 47.8432739 57.28160348 51.796875 56.51757812 C58.13220897 58.3079986 62.40450048 63.86166113 66.796875 68.51757812 C67.456875 68.18757813 68.116875 67.85757813 68.796875 67.51757812 C69.28855285 65.36108465 69.28855285 65.36108465 69.48291016 62.72241211 C69.58418213 61.68709351 69.6854541 60.6517749 69.78979492 59.58508301 C69.88752197 58.48901733 69.98524902 57.39295166 70.0859375 56.26367188 C70.18221436 55.2621106 70.27849121 54.26054932 70.37768555 53.2286377 C70.73602475 49.47175048 71.07794555 45.7133119 71.421875 41.95507812 C72.205625 33.56070313 72.989375 25.16632813 73.796875 16.51757812 C54.656875 16.51757812 35.516875 16.51757812 15.796875 16.51757812 Z " fill="#000000" transform="translate(237.203125,159.482421875)"/>
<path d="M0 0 C5.28 0 10.56 0 16 0 C16 5.28 16 10.56 16 16 C10.72 16 5.44 16 0 16 C0 10.72 0 5.44 0 0 Z " fill="#000000" transform="translate(248,408)"/>
<path d="M0 0 C5.28 0 10.56 0 16 0 C16 5.28 16 10.56 16 16 C10.72 16 5.44 16 0 16 C0 10.72 0 5.44 0 0 Z " fill="#000000" transform="translate(408,248)"/>
<path d="M0 0 C5.28 0 10.56 0 16 0 C16 5.28 16 10.56 16 16 C10.72 16 5.44 16 0 16 C0 10.72 0 5.44 0 0 Z " fill="#000000" transform="translate(88,248)"/>
<path d="M0 0 C5.28 0 10.56 0 16 0 C16 5.28 16 10.56 16 16 C10.72 16 5.44 16 0 16 C0 10.72 0 5.44 0 0 Z " fill="#000000" transform="translate(248,88)"/>
</svg>
