<?xml version="1.0" encoding="UTF-8"?>
<svg version="1.1" xmlns="http://www.w3.org/2000/svg" width="512" height="512">
<path d="M0 0 C1.21401902 -0.00698988 1.21401902 -0.00698988 2.45256367 -0.01412097 C5.16383904 -0.02606924 7.87461314 -0.01667621 10.58589268 -0.00736332 C12.5496406 -0.0115363 14.51338611 -0.01701362 16.47712713 -0.02368313 C21.87306388 -0.038161 27.26884819 -0.03388567 32.66479337 -0.02651632 C38.48425162 -0.02179278 44.30367651 -0.03428726 50.12312412 -0.04453373 C61.52359544 -0.06174282 72.92401169 -0.06255739 84.32449263 -0.05732083 C93.5891378 -0.05328195 102.85376667 -0.05471932 112.11841106 -0.06006908 C114.09513167 -0.06119172 114.09513167 -0.06119172 116.11178603 -0.06233703 C118.11766681 -0.06348222 120.12354759 -0.0646321 122.12942836 -0.06579627 C140.77816878 -0.07650126 159.42690318 -0.08122651 178.07564545 -0.07332611 C178.77862307 -0.07302894 179.4816007 -0.07273176 180.20588067 -0.07242559 C185.91456509 -0.06997665 191.62324943 -0.06736506 197.33193376 -0.06474145 C219.60098732 -0.05463841 241.86996548 -0.06299551 264.13900852 -0.086236 C289.15916312 -0.11230537 314.17927233 -0.12515745 339.19944102 -0.11804825 C352.44698367 -0.11449214 365.69446704 -0.11681511 378.94200039 -0.13429928 C390.21888457 -0.14899777 401.49566322 -0.14968744 412.77254527 -0.13222837 C418.52743336 -0.1236968 424.28213274 -0.12162151 430.03701115 -0.13687992 C435.30419484 -0.15067254 440.57102718 -0.14603376 445.83819026 -0.12664068 C447.74457 -0.12286369 449.65097752 -0.12585129 451.55733263 -0.13625234 C454.14812763 -0.14938355 456.73770307 -0.1378739 459.32844543 -0.12025452 C460.43942252 -0.13473028 460.43942252 -0.13473028 461.57284358 -0.14949849 C468.56110806 -0.05187319 474.61971731 2.67712577 479.53964329 7.69281673 C480.0823386 8.22519955 480.62503391 8.75758236 481.18417454 9.30609798 C485.25806062 14.78263852 486.16820389 19.95466095 486.10746002 26.65317345 C486.11211994 27.46251946 486.11677986 28.27186547 486.12158099 29.10573712 C486.13352926 31.81701249 486.12413623 34.52778659 486.11482334 37.23906612 C486.11899632 39.20281404 486.12447364 41.16655955 486.13114315 43.13030058 C486.14562103 48.52623733 486.14134569 53.92202164 486.13397634 59.31796682 C486.1292528 65.13742507 486.14174729 70.95684996 486.15199375 76.77629757 C486.16920285 88.17676889 486.17001741 99.57718514 486.16478085 110.97766607 C486.16074198 120.24231124 486.16217934 129.50694012 486.16752911 138.77158451 C486.16827753 140.08939825 486.16902595 141.40721199 486.16979705 142.76495947 C486.17094224 144.77084026 486.17209212 146.77672103 486.17325629 148.78260181 C486.18396128 167.43134223 486.18868653 186.08007662 486.18078613 204.72881889 C486.18034037 205.78328533 486.18034037 205.78328533 486.17988561 206.85905412 C486.17743667 212.56773853 486.17482508 218.27642287 486.17220147 223.98510721 C486.16209843 246.25416077 486.17045553 268.52313893 486.19369602 290.79218197 C486.2197654 315.81233657 486.23261747 340.83244578 486.22550827 365.85261446 C486.22195216 379.10015712 486.22427513 392.34764049 486.2417593 405.59517384 C486.25645779 416.87205801 486.25714746 428.14883666 486.23968839 439.42571872 C486.23115682 445.18060681 486.22908153 450.93530619 486.24433994 456.69018459 C486.25813256 461.95736828 486.25349378 467.22420063 486.23410071 472.49136371 C486.23032371 474.39774345 486.23331132 476.30415097 486.24371236 478.21050607 C486.25684358 480.80130107 486.24533392 483.39087651 486.22771454 485.98161888 C486.23736505 486.72227027 486.24701556 487.46292166 486.25695851 488.22601703 C486.1650591 494.80440854 483.90331961 499.92773877 479.54354954 504.84125423 C478.42786594 505.78871517 478.42786594 505.78871517 477.28964329 506.75531673 C476.54843235 507.40242611 475.80722141 508.04953548 475.04354954 508.71625423 C470.11048345 512.26007574 465.64375613 512.67023671 459.70038223 512.63758564 C458.89334391 512.64109171 458.08630559 512.64459779 457.25481156 512.64821011 C454.53944052 512.65754434 451.82428301 512.65259558 449.10890293 512.64774227 C447.14688244 512.65147751 445.18486344 512.65607852 443.22284681 512.66147292 C437.82242234 512.67373393 432.42205967 512.6734388 427.02162445 512.67108417 C421.20077261 512.67067678 415.3799408 512.68170762 409.55909824 512.6911993 C398.15168045 512.70782719 386.74428332 512.71330965 375.33685442 512.71442406 C366.06644328 512.71537367 356.79603898 512.71947961 347.52563 512.72582531 C344.85787895 512.72761431 342.19012789 512.72940001 339.52237684 512.73117507 C338.85917958 512.73161716 338.19598233 512.73205926 337.5126882 512.73251475 C318.85609407 512.74482454 300.19950227 512.75271574 281.5429039 512.75182819 C280.83939424 512.75179704 280.13588459 512.75176588 279.41105646 512.75173378 C275.84531683 512.75156756 272.27957721 512.75136948 268.71383759 512.75116436 C267.65157058 512.75110453 267.65157058 512.75110453 266.56784364 512.75104348 C265.13573484 512.75096261 263.70362605 512.75087901 262.27151726 512.7507927 C239.98936585 512.74956714 217.70727532 512.76458066 195.42514133 512.79193783 C170.39548298 512.82265558 145.36586462 512.83987051 120.33618623 512.83801138 C107.08190264 512.83727005 93.82768478 512.84287021 80.57341671 512.86436749 C69.28916988 512.88255194 58.00502281 512.88694911 46.7207677 512.87334864 C40.96183925 512.86680524 35.20310233 512.86675134 29.44419193 512.88405514 C24.17323393 512.89973011 18.90262019 512.89697926 13.63167087 512.87948687 C11.72388291 512.87640468 9.8160696 512.88009502 7.90831151 512.89120702 C5.31559963 512.90530956 2.72409845 512.89475684 0.13142776 512.87809467 C-0.60979532 512.88803103 -1.3510184 512.89796739 -2.11470279 512.90820485 C-9.10540601 512.81317958 -15.16368924 510.08528309 -20.08535671 505.06781673 C-20.62805202 504.53543392 -21.17074734 504.00305111 -21.72988796 503.45453548 C-25.80377405 497.97799495 -26.71391731 492.80597251 -26.65317345 486.10746002 C-26.65783337 485.29811401 -26.66249328 484.488768 -26.66729441 483.65489635 C-26.67924269 480.94362098 -26.66984966 478.23284688 -26.66053677 475.52156734 C-26.66470975 473.55781942 -26.67018707 471.59407392 -26.67685658 469.63033289 C-26.69133445 464.23439614 -26.68705911 458.83861183 -26.67968976 453.44266665 C-26.67496623 447.6232084 -26.68746071 441.80378351 -26.69770718 435.9843359 C-26.71491627 424.58386458 -26.71573083 413.18344833 -26.71049427 401.7829674 C-26.7064554 392.51832222 -26.70789277 383.25369335 -26.71324253 373.98904896 C-26.71399095 372.67123522 -26.71473937 371.35342148 -26.71551048 369.995674 C-26.71665567 367.98979321 -26.71780555 365.98391243 -26.71896972 363.97803166 C-26.72967471 345.32929124 -26.73439995 326.68055685 -26.72649956 308.03181458 C-26.72620238 307.32883695 -26.72590521 306.62585933 -26.72559903 305.90157935 C-26.72315009 300.19289494 -26.72053851 294.48421059 -26.7179149 288.77552626 C-26.70781185 266.5064727 -26.71616895 244.23749454 -26.73940945 221.9684515 C-26.76547882 196.9482969 -26.7783309 171.92818769 -26.7712217 146.90801901 C-26.76766558 133.66047635 -26.76998856 120.41299298 -26.78747272 107.16545963 C-26.80217122 95.88857546 -26.80286089 84.61179681 -26.78540181 73.33491475 C-26.77687025 67.58002666 -26.77479496 61.82532728 -26.79005337 56.07044888 C-26.80384599 50.80326519 -26.79920721 45.53643284 -26.77981413 40.26926976 C-26.77603714 38.36289002 -26.77902474 36.4564825 -26.78942578 34.55012739 C-26.802557 31.95933239 -26.79104735 29.36975696 -26.77342796 26.77901459 C-26.78307848 26.0383632 -26.79272899 25.29771181 -26.80267194 24.53461644 C-26.70504664 17.54635196 -23.97604768 11.48774272 -18.96035671 6.56781673 C-18.4279739 6.02512142 -17.89559109 5.48242611 -17.34707546 4.92328548 C-11.87053493 0.8493994 -6.69851249 -0.06074386 0 0 Z M-6.72826815 19.9249053 C-8.85155008 23.3002577 -8.82519149 26.3048922 -8.77622128 30.17026424 C-8.78203504 30.96384012 -8.7878488 31.757416 -8.79383874 32.57503963 C-8.80850921 35.25083345 -8.79452102 37.92572006 -8.78079128 40.60150814 C-8.78539742 42.53252095 -8.79174839 44.46353027 -8.79970026 46.3945322 C-8.81645619 51.71380368 -8.80811881 57.03278949 -8.79575539 62.35206223 C-8.78673278 68.08356671 -8.80066073 73.81502087 -8.81167507 79.54651546 C-8.82949476 90.77963572 -8.82560495 102.01264929 -8.81402451 113.24577379 C-8.80500401 122.37227507 -8.80376018 131.49874637 -8.80811977 140.62525082 C-8.80873271 141.92242303 -8.80934564 143.21959523 -8.80997714 144.55607569 C-8.811256 147.19096264 -8.81255285 149.82584958 -8.81386751 152.46073651 C-8.82495775 176.48333492 -8.8134418 200.50587559 -8.79249712 224.5284647 C-8.77351404 246.46804556 -8.77521253 268.40753356 -8.79434109 290.34711361 C-8.81574989 314.98449863 -8.82418469 339.6218275 -8.81189203 364.25922108 C-8.81061779 366.88460826 -8.80936031 369.50999545 -8.80811977 372.13538265 C-8.80750267 373.42724346 -8.80688557 374.71910426 -8.80624977 376.05011237 C-8.80279091 385.16940945 -8.80863673 394.28867367 -8.81803799 403.40796566 C-8.82923732 414.51596125 -8.82626148 425.62384373 -8.80491501 436.73182631 C-8.79437677 442.40315924 -8.79032992 448.07430334 -8.80351162 453.74563503 C-8.81538398 458.93193603 -8.80895847 464.11787221 -8.78760141 469.30413985 C-8.78311339 471.18563657 -8.78545052 473.06716376 -8.79510456 474.94864106 C-8.80717962 477.49632878 -8.79488523 480.04274895 -8.77622128 482.59036922 C-8.78558594 483.32955145 -8.7949506 484.06873367 -8.80459905 484.83031535 C-8.75724691 488.04007773 -8.45015413 490.09846944 -6.72826815 492.83572817 C-3.35291574 494.9590101 -0.34828125 494.93265151 3.5170908 494.8836813 C4.70745461 494.89240194 4.70745461 494.89240194 5.92186618 494.90129876 C8.59766 494.91596923 11.27254661 494.90198104 13.94833469 494.8882513 C15.87934751 494.89285744 17.81035682 494.89920841 19.74135876 494.90716028 C25.06063023 494.92391621 30.37961604 494.91557883 35.69888878 494.90321541 C41.43039326 494.8941928 47.16184742 494.90812075 52.89334202 494.91913509 C64.12646228 494.93695478 75.35947584 494.93306498 86.59260035 494.92148453 C95.71910162 494.91246403 104.84557292 494.9112202 113.97207737 494.9155798 C115.91783568 494.91649919 115.91783568 494.91649919 117.90290225 494.91743717 C120.53778919 494.91871602 123.17267614 494.92001287 125.80756307 494.92132753 C149.83016147 494.93241777 173.85270215 494.92090183 197.87529126 494.89995714 C219.81487212 494.88097407 241.75436012 494.88267255 263.69394016 494.90180111 C288.33132518 494.92320991 312.96865405 494.93164471 337.60604763 494.91935205 C340.23143481 494.91807781 342.85682201 494.91682033 345.48220921 494.9155798 C346.77407001 494.91496269 348.06593082 494.91434559 349.39693892 494.91370979 C358.516236 494.91025093 367.63550022 494.91609675 376.75479221 494.92549801 C387.86278781 494.93669734 398.97067029 494.9337215 410.07865286 494.91237503 C415.74998579 494.9018368 421.4211299 494.89778994 427.09246159 494.91097164 C432.27876258 494.92284401 437.46469876 494.91641849 442.65096641 494.89506143 C444.53246312 494.89057341 446.41399032 494.89291054 448.29546762 494.90256459 C450.84315533 494.91463964 453.3895755 494.90234525 455.93719578 494.8836813 C456.676378 494.89304596 457.41556022 494.90241063 458.1771419 494.91205907 C461.38690428 494.86470693 463.44529599 494.55761416 466.18255472 492.83572817 C468.30583665 489.46037576 468.27947807 486.45574127 468.23050785 482.59036922 C468.2392285 481.40000541 468.2392285 481.40000541 468.24812531 480.18559384 C468.26279578 477.50980002 468.24880759 474.83491341 468.23507786 472.15912533 C468.23968399 470.22811251 468.24603497 468.2971032 468.25398684 466.36610126 C468.27074276 461.04682979 468.26240538 455.72784398 468.25004196 450.40857124 C468.24101936 444.67706676 468.2549473 438.9456126 468.26596165 433.214118 C468.28378134 421.98099775 468.27989153 410.74798418 468.26831108 399.51485968 C468.25929059 390.3883584 468.25804676 381.2618871 468.26240635 372.13538265 C468.26332575 370.18962434 468.26332575 370.18962434 468.26426372 368.20455778 C468.26554257 365.56967083 468.26683943 362.93478389 468.26815408 360.29989696 C468.27924433 336.27729855 468.26772838 312.25475788 468.2467837 288.23216876 C468.22780062 266.29258791 468.2294991 244.35309991 468.24862766 222.41351986 C468.27003646 197.77613484 468.27847126 173.13880597 468.26617861 148.50141239 C468.26490436 145.87602521 468.26364688 143.25063802 468.26240635 140.62525082 C468.26178925 139.33339001 468.26117215 138.0415292 468.26053634 136.7105211 C468.25707749 127.59122402 468.26292331 118.4719598 468.27232456 109.35266781 C468.2835239 98.24467222 468.28054805 87.13678974 468.25920159 76.02880716 C468.24866335 70.35747423 468.2446165 64.68633012 468.25779819 59.01499844 C468.26967056 53.82869744 468.26324505 48.64276126 468.24188799 43.45649362 C468.23739997 41.5749969 468.23973709 39.6934697 468.24939114 37.81199241 C468.26146619 35.26430469 468.2491718 32.71788452 468.23050785 30.17026424 C468.23987252 29.43108202 468.24923718 28.6918998 468.25888562 27.93031812 C468.21153348 24.72055574 467.90444071 22.66216403 466.18255472 19.9249053 C462.80720232 17.80162337 459.80256783 17.82798196 455.93719578 17.87695217 C454.74683196 17.86823153 454.74683196 17.86823153 453.5324204 17.85933471 C450.85662658 17.84466424 448.18173996 17.85865243 445.50595188 17.87238216 C443.57493907 17.86777603 441.64392975 17.86142506 439.71292782 17.85347319 C434.39365634 17.83671726 429.07467054 17.84505464 423.7553978 17.85741806 C418.02389331 17.86644066 412.29243915 17.85251272 406.56094456 17.84149837 C395.3278243 17.82367869 384.09481073 17.82756849 372.86168623 17.83914894 C363.73518495 17.84816943 354.60871366 17.84941326 345.48220921 17.84505367 C343.53645089 17.84413427 343.53645089 17.84413427 341.55138433 17.8431963 C338.91649738 17.84191745 336.28161044 17.8406206 333.64672351 17.83930594 C309.6241251 17.82821569 285.60158443 17.83973164 261.57899532 17.86067633 C239.63941446 17.8796594 217.69992646 17.87796092 195.76034641 17.85883236 C171.12296139 17.83742356 146.48563252 17.82898876 121.84823895 17.84128141 C119.22285176 17.84255566 116.59746457 17.84381314 113.97207737 17.84505367 C112.68021656 17.84567077 111.38835576 17.84628788 110.05734766 17.84692368 C100.93805057 17.85038253 91.81878636 17.84453672 82.69949436 17.83513546 C71.59149877 17.82393613 60.48361629 17.82691197 49.37563372 17.84825844 C43.70430078 17.85879667 38.03315668 17.86284353 32.36182499 17.84966183 C27.17552399 17.83778946 21.98958782 17.84421497 16.80332017 17.86557204 C14.92182346 17.87006006 13.04029626 17.86772293 11.15881896 17.85806888 C8.61113124 17.84599383 6.06471108 17.85828822 3.5170908 17.87695217 C2.77790858 17.86758751 2.03872635 17.85822284 1.27714467 17.8485744 C-1.9326177 17.89592654 -3.99100941 18.20301931 -6.72826815 19.9249053 Z " fill="#000000" transform="translate(26.27285671234131,-0.38031673431396484)"/>
<path d="M0 0 C1.06559143 -0.0087616 2.13118286 -0.01752319 3.22906494 -0.02655029 C6.749479 -0.04854695 10.26863579 -0.03398934 13.7890625 -0.01708984 C16.23616782 -0.02045787 18.6832715 -0.02531037 21.13037109 -0.03158569 C26.25830008 -0.03895744 31.38579352 -0.02824101 36.51367188 -0.00488281 C43.08807035 0.02360421 49.66144829 0.00720199 56.23580933 -0.02274513 C61.28873388 -0.04080938 66.34141632 -0.03506388 71.39434814 -0.02210617 C73.81846233 -0.01876979 76.24259846 -0.02286731 78.66668701 -0.03450394 C82.05442563 -0.04719736 85.44050969 -0.02785394 88.828125 0 C89.83087463 -0.01012115 90.83362427 -0.02024231 91.86676025 -0.03067017 C96.48773362 0.0397485 98.72165758 0.14171224 102.54020691 2.92817688 C104.36907437 5.58169893 105.03287358 6.6519721 104.98168945 9.79467773 C104.9813118 10.57510941 104.98093414 11.35554108 104.98054504 12.15962219 C104.95473862 12.98689316 104.92893219 13.81416412 104.90234375 14.66650391 C104.89173164 15.95436043 104.89173164 15.95436043 104.88090515 17.26823425 C104.85300652 19.99954868 104.79027941 22.72878224 104.7265625 25.45947266 C104.70147364 27.31556275 104.67866149 29.17168512 104.65820312 31.02783203 C104.60319503 35.56834237 104.51695614 40.10730523 104.4140625 44.64697266 C105.03732422 44.82292969 105.66058594 44.99888672 106.30273438 45.18017578 C140.11552394 54.98358108 170.87015898 78.1243782 192.4140625 105.64697266 C192.8476709 106.19885254 193.2812793 106.75073242 193.72802734 107.31933594 C224.85730346 147.27212848 237.49488333 198.32697436 231.64477539 248.41186523 C224.97102691 295.03649513 200.26066823 341.01519267 162.4140625 369.64697266 C161.48335938 370.38173828 160.55265625 371.11650391 159.59375 371.87353516 C146.46894865 382.058381 121.79356195 400.64697266 104.4140625 400.64697266 C104.44024658 401.80221436 104.46643066 402.95745605 104.4934082 404.14770508 C104.58406598 408.44324291 104.64136801 412.7386966 104.6887207 417.03491211 C104.71382952 418.89247875 104.74792384 420.74994693 104.79125977 422.60717773 C104.85207374 425.28084623 104.8803077 427.95320631 104.90234375 430.62744141 C104.92815018 431.45471237 104.9539566 432.28198334 104.98054504 433.13432312 C104.9809227 433.91475479 104.98130035 434.69518646 104.98168945 435.49926758 C104.99279251 436.18099533 105.00389557 436.86272308 105.01533508 437.56510925 C103.98617104 441.12851631 102.39852194 442.46915852 99.4140625 444.64697266 C95.88637297 445.38273609 92.42131897 445.33021286 88.828125 445.29394531 C87.22973785 445.30708771 87.22973785 445.30708771 85.59906006 445.32049561 C82.078646 445.34249226 78.55948921 445.32793466 75.0390625 445.31103516 C72.59195718 445.31440318 70.1448535 445.31925568 67.69775391 445.32553101 C62.56982492 445.33290275 57.44233148 445.32218632 52.31445312 445.29882812 C45.74005465 445.2703411 39.16667671 445.28674332 32.59231567 445.31669044 C27.53939112 445.33475469 22.48670868 445.32900919 17.43377686 445.31605148 C15.00966267 445.3127151 12.58552654 445.31681262 10.16143799 445.32844925 C6.77369937 445.34114268 3.38761531 445.32179925 0 445.29394531 C-1.00274963 445.30406647 -2.00549927 445.31418762 -3.03863525 445.32461548 C-7.65960862 445.25419681 -9.89353258 445.15223307 -13.71208191 442.36576843 C-15.54094937 439.71224639 -16.20474858 438.64197322 -16.15356445 435.49926758 C-16.1531868 434.71883591 -16.15280914 433.93840424 -16.15242004 433.13432312 C-16.12661362 432.30705215 -16.10080719 431.47978119 -16.07421875 430.62744141 C-16.06714401 429.76887039 -16.06006927 428.91029938 -16.05278015 428.02571106 C-16.02488152 425.29439663 -15.96215441 422.56516307 -15.8984375 419.83447266 C-15.87334864 417.97838256 -15.85053649 416.12226019 -15.83007812 414.26611328 C-15.77507003 409.72560294 -15.68883114 405.18664009 -15.5859375 400.64697266 C-16.20919922 400.47101563 -16.83246094 400.29505859 -17.47460938 400.11376953 C-51.28739894 390.31036423 -82.04203398 367.16956711 -103.5859375 339.64697266 C-104.0195459 339.09509277 -104.4531543 338.54321289 -104.89990234 337.97460938 C-136.02917846 298.02181683 -148.66675833 246.96697096 -142.81665039 196.88208008 C-135.94267522 148.85861181 -110.10755325 102.98064451 -71.30615234 73.56469727 C-32.39396015 44.64697266 -32.39396015 44.64697266 -15.5859375 44.64697266 C-15.61212158 43.49173096 -15.63830566 42.33648926 -15.6652832 41.14624023 C-15.75594098 36.8507024 -15.81324301 32.55524871 -15.8605957 28.2590332 C-15.88570452 26.40146656 -15.91979884 24.54399838 -15.96313477 22.68676758 C-16.02394874 20.01309908 -16.0521827 17.340739 -16.07421875 14.66650391 C-16.10002518 13.83923294 -16.1258316 13.01196198 -16.15242004 12.15962219 C-16.1527977 11.37919052 -16.15317535 10.59875885 -16.15356445 9.79467773 C-16.16466751 9.11294998 -16.17577057 8.43122223 -16.18721008 7.72883606 C-13.83605926 -0.41185586 -7.0339482 -0.07099646 0 0 Z M2.4140625 18.64697266 C2.0840625 30.19697266 1.7540625 41.74697266 1.4140625 53.64697266 C-1.08672771 58.64855307 -3.74370353 59.21732198 -8.7109375 60.95947266 C-10.35638659 61.57028704 -12.00090262 62.18362018 -13.64453125 62.79931641 C-14.47452637 63.10724121 -15.30452148 63.41516602 -16.15966797 63.73242188 C-58.18488149 79.57328018 -91.82023345 111.49685587 -110.70703125 152.13525391 C-129.44357008 193.95373525 -131.01744121 240.66379753 -114.76953125 283.56103516 C-103.59579632 311.76209665 -85.83869319 337.18696149 -61.5859375 355.64697266 C-60.70035156 356.35982422 -59.81476563 357.07267578 -58.90234375 357.80712891 C-45.62244638 368.25054334 -31.04227089 375.94869049 -15.26953125 381.89306641 C-14.13233643 382.32208252 -14.13233643 382.32208252 -12.97216797 382.75976562 C-11.26825343 383.39328572 -9.55816743 384.01030722 -7.84423828 384.61621094 C-6.49628174 385.11290283 -6.49628174 385.11290283 -5.12109375 385.61962891 C-4.30133057 385.91232666 -3.48156738 386.20502441 -2.63696289 386.5065918 C-0.5859375 387.64697266 -0.5859375 387.64697266 1.4140625 391.64697266 C1.7440625 403.19697266 2.0740625 414.74697266 2.4140625 426.64697266 C30.1340625 426.64697266 57.8540625 426.64697266 86.4140625 426.64697266 C86.7440625 415.09697266 87.0740625 403.54697266 87.4140625 391.64697266 C89.91499773 386.64510219 92.57190484 386.07708293 97.5390625 384.33447266 C99.18836792 383.72091526 100.83679142 383.10498255 102.484375 382.48681641 C103.31485352 382.17856934 104.14533203 381.87032227 105.00097656 381.55273438 C133.56449241 370.83130137 160.03961875 352.19093766 178.4140625 327.64697266 C178.81044922 327.12554687 179.20683594 326.60412109 179.61523438 326.06689453 C206.72411711 290.24595276 219.12082441 245.91982331 213.72265625 201.16259766 C207.65686724 158.74244592 186.43787898 117.36322329 152.23828125 90.75244141 C150.84029297 89.71023437 150.84029297 89.71023437 149.4140625 88.64697266 C148.89408691 88.25203613 148.37411133 87.85709961 147.83837891 87.45019531 C134.25679415 77.17083122 120.10634325 69.55479831 104.203125 63.47119141 C103.42614258 63.1726123 102.64916016 62.8740332 101.84863281 62.56640625 C100.12559099 61.91568668 98.39486707 61.28514202 96.65917969 60.66894531 C95.76102539 60.33813965 94.86287109 60.00733398 93.9375 59.66650391 C93.11942871 59.37493408 92.30135742 59.08336426 91.45849609 58.78295898 C89.4140625 57.64697266 89.4140625 57.64697266 87.4140625 53.64697266 C87.0840625 42.09697266 86.7540625 30.54697266 86.4140625 18.64697266 C58.6940625 18.64697266 30.9740625 18.64697266 2.4140625 18.64697266 Z " fill="#000000" transform="translate(211.5859375,33.35302734375)"/>
<path d="M0 0 C3.42669214 2.90749636 6.73343269 5.91431753 10 9 C10.75023437 9.68578125 11.50046875 10.3715625 12.2734375 11.078125 C34.28980782 31.93573899 45.51305464 62.56692524 46.3515625 92.48535156 C46.66850134 126.49024803 33.92552406 157.04876416 10.25 181.3125 C-12.96909046 204.22251771 -43.95037744 215.44880473 -76.31201172 215.30078125 C-109.29275515 214.59919658 -138.80631181 200.88424302 -161.90039062 177.58374023 C-184.75387289 153.60741751 -194.90435455 121.95328182 -194.24609375 89.2734375 C-193.14741277 59.26468846 -180.42039372 32.61745128 -160 11 C-159.31421875 10.24976563 -158.6284375 9.49953125 -157.921875 8.7265625 C-117.88225825 -33.5374774 -44.60562164 -36.57106867 0 0 Z M-142 19 C-142.92554688 19.84433594 -143.85109375 20.68867188 -144.8046875 21.55859375 C-165.17959528 41.00223843 -175.65112691 66.86210126 -176.3125 94.75 C-176.11292685 123.14100076 -165.05871957 148.20460461 -145 168 C-144.11441406 168.89589844 -143.22882813 169.79179687 -142.31640625 170.71484375 C-123.55368733 188.80846125 -97.57432907 197.63845693 -71.72802734 197.34960938 C-42.5831235 196.41898461 -17.89066386 183.68414593 2.33203125 162.9765625 C20.87061105 142.29369602 29.38547763 115.65285512 28.14355469 88.16455078 C26.43508528 62.40385387 15.18150867 39.94282789 -3 22 C-3.88558594 21.10410156 -4.77117187 20.20820313 -5.68359375 19.28515625 C-24.45496587 1.18319413 -50.41375143 -7.61648007 -76.26538086 -7.35180664 C-100.44471862 -6.59628403 -124.13773597 2.60404123 -142 19 Z " fill="#000000" transform="translate(330,161)"/>
<path d="M0 0 C0.71402481 -0.0065712 1.42804962 -0.0131424 2.16371155 -0.01991272 C4.5312612 -0.03965447 6.89874739 -0.05131037 9.26635742 -0.0612793 C10.07469213 -0.06535482 10.88302685 -0.06943035 11.71585655 -0.07362938 C15.99448771 -0.09449415 20.27308677 -0.10879392 24.55175781 -0.11816406 C28.97042843 -0.12922774 33.38859534 -0.16362558 37.8070879 -0.20333576 C41.20518426 -0.22948624 44.60316035 -0.23785449 48.0013485 -0.24144554 C49.6300363 -0.24631582 51.25871858 -0.25794244 52.88730812 -0.27648354 C55.16876705 -0.30084217 57.44891949 -0.29991666 59.73046875 -0.29296875 C61.02793533 -0.29883499 62.32540192 -0.30470123 63.66218567 -0.31074524 C67.62255207 0.25786757 69.25350321 1.38293799 72.05932617 4.17700195 C73.61310014 7.2845499 73.30992612 9.72777211 73.05932617 13.17700195 C72.1325218 15.9512455 70.88321056 18.51018112 69.55932617 21.11450195 C69.22545898 21.79834961 68.8915918 22.48219727 68.54760742 23.18676758 C67.73039578 24.85621422 66.89655147 26.5175018 66.05932617 28.17700195 C66.76573242 28.4090332 67.47213867 28.64106445 68.19995117 28.88012695 C81.13633155 34.74744701 89.80102202 49.17498953 94.99682617 61.80200195 C101.50530764 80.31750957 100.31687788 99.4353126 92.05932617 117.17700195 C86.42068761 127.66683827 78.46479812 138.0385221 68.05932617 144.17700195 C67.39932617 144.17700195 66.73932617 144.17700195 66.05932617 144.17700195 C66.56463867 145.17860352 67.06995117 146.18020508 67.59057617 147.2121582 C68.24754611 148.55425394 68.90375592 149.89672196 69.55932617 151.23950195 C69.89319336 151.8962793 70.22706055 152.55305664 70.57104492 153.22973633 C72.7273048 157.69627465 73.59349611 161.11481011 73.05932617 166.17700195 C71.26370212 168.93029216 70.00677695 170.70327656 67.05932617 172.17700195 C64.7477661 172.2897915 62.43289563 172.3364128 60.11865234 172.35400391 C59.40462753 172.3605751 58.69060272 172.3671463 57.9549408 172.37391663 C55.58739114 172.39365837 53.21990495 172.40531428 50.85229492 172.4152832 C50.04396021 172.41935873 49.2356255 172.42343426 48.40279579 172.42763329 C44.12416463 172.44849805 39.84556558 172.46279783 35.56689453 172.47216797 C31.14822392 172.48323165 26.73005701 172.51762948 22.31156445 172.55733967 C18.91346808 172.58349015 15.51549199 172.5918584 12.11730385 172.59544945 C10.48861605 172.60031972 8.85993377 172.61194635 7.23134422 172.63048744 C4.94988529 172.65484608 2.66973285 172.65392056 0.38818359 172.64697266 C-1.55801628 172.65577202 -1.55801628 172.65577202 -3.54353333 172.66474915 C-7.50389972 172.09613634 -9.13485086 170.97106592 -11.94067383 168.17700195 C-13.4944478 165.06945401 -13.19127378 162.6262318 -12.94067383 159.17700195 C-12.01386946 156.40275841 -10.76455822 153.84382279 -9.44067383 151.23950195 C-9.10680664 150.5556543 -8.77293945 149.87180664 -8.42895508 149.16723633 C-7.61174343 147.49778968 -6.77789913 145.83650211 -5.94067383 144.17700195 C-7.0002832 143.82895508 -7.0002832 143.82895508 -8.08129883 143.47387695 C-21.0176792 137.60655689 -29.68236967 123.17901438 -34.87817383 110.55200195 C-41.18346504 92.61453557 -40.31160703 73.55045528 -32.51879883 56.1574707 C-26.51375235 44.81625668 -18.76448088 35.18064181 -7.94067383 28.17700195 C-7.28067383 28.17700195 -6.62067383 28.17700195 -5.94067383 28.17700195 C-6.44598633 27.17540039 -6.95129883 26.17379883 -7.47192383 25.1418457 C-8.12889377 23.79974997 -8.78510358 22.45728195 -9.44067383 21.11450195 C-9.77454102 20.45772461 -10.1084082 19.80094727 -10.45239258 19.12426758 C-12.60865246 14.65772925 -13.47484377 11.2391938 -12.94067383 6.17700195 C-9.14342011 0.35454625 -6.73125564 0.05116587 0 0 Z M11.05932617 18.17700195 C12.74056795 23.65808969 12.74056795 23.65808969 14.24682617 26.61450195 C15.42611211 30.33378837 15.25613588 32.45359397 14.05932617 36.17700195 C11.64796546 38.28146221 8.85943336 39.65050674 6.05932617 41.17700195 C-6.69934158 49.15872775 -15.62511589 59.62412452 -19.81958008 74.23950195 C-22.64708364 88.47588353 -20.13847297 102.62493735 -12.18676758 114.88012695 C-5.8763645 123.19201141 1.84133598 129.47267808 11.24682617 133.97387695 C13.48759747 135.46128549 14.16185312 136.66027857 15.05932617 139.17700195 C14.77956585 144.21268777 13.41864283 147.7661056 11.05932617 152.17700195 C11.05932617 152.83700195 11.05932617 153.49700195 11.05932617 154.17700195 C23.59932617 154.17700195 36.13932617 154.17700195 49.05932617 154.17700195 C47.5063474 148.7165999 47.5063474 148.7165999 45.87182617 146.30200195 C44.52770819 142.78661647 44.67774187 139.61023895 46.05932617 136.17700195 C47.78420121 134.59433735 49.54809512 133.61593029 51.61010742 132.5090332 C66.3610215 124.48660625 75.16187701 113.16508711 80.05932617 97.17700195 C82.6373445 83.25570297 80.10588314 69.67452071 72.45776367 57.66137695 C66.15423178 49.19910126 58.87869198 43.77486812 49.59838867 38.8527832 C46.93743662 37.09655485 46.01302554 36.17852206 45.05932617 33.17700195 C45.33908649 28.14131614 46.70000952 24.58789831 49.05932617 20.17700195 C49.05932617 19.51700195 49.05932617 18.85700195 49.05932617 18.17700195 C36.51932617 18.17700195 23.97932617 18.17700195 11.05932617 18.17700195 Z " fill="#000000" transform="translate(225.940673828125,169.822998046875)"/>
<path d="M0 0 C7.1675169 6.06693849 11.49029773 14.25183193 12.41796875 23.56640625 C12.90133349 34.5495996 11.00647873 42.48188969 3.91015625 51.03515625 C-2.40093441 57.68060932 -10.18290206 61.76466522 -19.40991211 62.01538086 C-30.39743071 62.11799691 -38.28105378 59.91549681 -46.921875 52.7734375 C-54.03058041 45.63754775 -56.89406367 37.24517936 -57.33984375 27.41015625 C-57.16240538 18.28475425 -53.60200277 9.51826034 -47.25 2.94921875 C-33.76004899 -9.71263626 -15.04758762 -10.80135478 0 0 Z M-35.33984375 17.16015625 C-38.511889 22.16222761 -39.4072133 25.57531058 -38.56640625 31.44140625 C-37.23242327 36.50014692 -34.42770361 39.69200499 -30.21484375 42.66015625 C-24.7818406 44.43633036 -20.12315595 44.46976432 -14.71484375 42.59765625 C-10.53514485 39.74786155 -7.59620051 36.61672654 -5.96484375 31.72265625 C-5.14558205 25.78886076 -5.87013385 21.38310146 -9.34375 16.453125 C-12.87290958 12.68585345 -16.9449205 11.05931012 -21.96484375 10.22265625 C-27.35019905 11.12021547 -31.52956834 13.24961043 -35.33984375 17.16015625 Z " fill="#000000" transform="translate(465.96484375,416.27734375)"/>
<path d="M0 0 C7.25803513 5.809446 12.03632189 13.36051595 13.87890625 22.50390625 C14.82665131 33.91329867 12.34482266 43.68362859 4.87890625 52.50390625 C-3.11879344 60.22641628 -12.24377212 63.1472219 -23.22314453 62.9699707 C-33.27368526 62.50706988 -39.69409721 58.87993755 -46.91796875 52.01953125 C-54.56497888 43.28783883 -55.81431828 33.61691451 -55.30029297 22.46435547 C-54.53177892 14.05676985 -49.42778529 6.14930158 -43.0859375 0.78125 C-29.84520575 -8.72312005 -13.58601658 -9.19457688 0 0 Z M-33.73046875 17.203125 C-36.95856463 21.67349373 -37.84536942 25.69896914 -37.54296875 31.17578125 C-36.50082272 36.92688342 -32.69816641 40.25177567 -28.12109375 43.50390625 C-24.3648903 45.38200798 -20.2114195 45.01818697 -16.12109375 44.50390625 C-11.37812548 42.77772392 -8.11067831 40.10899935 -5.55859375 35.75390625 C-3.62618056 31.20199963 -3.76655063 27.21422073 -5.12109375 22.50390625 C-7.57213866 17.69259587 -10.30978337 14.95495116 -15.12109375 12.50390625 C-22.40928917 10.408043 -28.44623161 11.62389403 -33.73046875 17.203125 Z " fill="#000000" transform="translate(89.12109375,415.49609375)"/>
<path d="M0 0 C9.10535289 5.35515519 15.53674982 11.89978669 18.61328125 22.25390625 C20.70118982 33.08493194 18.66930797 41.94449948 13.48828125 51.56640625 C7.47231711 58.91925131 0.85138823 63.2816041 -8.19921875 66.06640625 C-19.28013406 67.14747116 -28.53041225 65.64017917 -37.7265625 59.0390625 C-44.8940794 52.97212401 -49.21686023 44.78723057 -50.14453125 35.47265625 C-50.62789599 24.4894629 -48.73304123 16.55717281 -41.63671875 8.00390625 C-31.19342819 -2.99267122 -13.88915459 -6.69947457 0 0 Z M-30.76171875 24.31640625 C-32.63982048 28.0726097 -32.27599947 32.2260805 -31.76171875 36.31640625 C-30.03553642 41.05937452 -27.36681185 44.32682169 -23.01171875 46.87890625 C-18.45981213 48.81131944 -14.47203323 48.67094937 -9.76171875 47.31640625 C-4.95040837 44.86536134 -2.21276366 42.12771663 0.23828125 37.31640625 C1.59282437 32.60609177 1.73319444 28.61831287 -0.19921875 24.06640625 C-2.76045973 19.69568786 -6.02018519 17.07824321 -10.76171875 15.31640625 C-19.89526168 13.72367423 -25.43182034 16.81506775 -30.76171875 24.31640625 Z " fill="#000000" transform="translate(83.76171875,36.68359375)"/>
<path d="M0 0 C8.90511973 5.14126516 14.70673726 11.29527722 18.046875 21.19140625 C20.538707 30.78792592 19.56034486 39.89795824 14.8828125 48.671875 C9.14708057 57.82757544 2.0054889 62.84356351 -8.265625 66.00390625 C-19.28366831 67.0788373 -28.56854248 65.60867337 -37.72265625 59.046875 C-45.28717758 52.60510267 -49.32561371 45.32173006 -50.140625 35.48046875 C-50.61558142 24.43182789 -48.85773763 16.5649305 -41.703125 7.94140625 C-31.19135102 -3.1272829 -13.94355153 -6.71442834 0 0 Z M-29.140625 21.87890625 C-32.46047992 26.55129466 -32.42645424 30.63298228 -31.828125 36.25390625 C-30.51359181 40.24257552 -28.28923171 42.8464166 -25.140625 45.62890625 C-20.32729461 47.99016267 -15.87419355 49.16718959 -10.61328125 47.58984375 C-5.32464018 45.16711432 -2.44021706 42.01749264 0.484375 37.00390625 C1.67662111 32.2349218 1.3400496 27.68370941 -0.8046875 23.22265625 C-3.47190135 19.16160807 -6.11182505 16.7666817 -10.828125 15.25390625 C-18.9028733 14.20010549 -23.63796917 15.63264828 -29.140625 21.87890625 Z " fill="#000000" transform="translate(450.828125,36.74609375)"/>
</svg>
