<?xml version="1.0" encoding="UTF-8"?>
<svg version="1.1" xmlns="http://www.w3.org/2000/svg" width="512" height="512">
<path d="M0 0 C0.74767639 0.00215515 1.49535278 0.0043103 2.26568604 0.00653076 C13.49183358 0.05839402 24.34373708 0.46142195 35.25 3.3125 C36.04470703 3.51649414 36.83941406 3.72048828 37.65820312 3.93066406 C62.5494853 10.49256385 84.41741257 21.61192602 103.25 39.3125 C104.04229004 40.04919922 104.04229004 40.04919922 104.85058594 40.80078125 C132.78893485 66.99406322 148.38902393 102.11818164 150.25 140.3125 C150.30414063 141.38242188 150.35828125 142.45234375 150.4140625 143.5546875 C152.3435863 220.91105059 105.36460655 295.21255438 53.98779297 349.5 C43.89781652 360.02374054 33.81130515 370.3995191 22.25 379.3125 C20.39301387 380.85076936 18.5389044 382.39251719 16.6875 383.9375 C14.88080387 385.40301746 13.0683627 386.8614833 11.25 388.3125 C10.34636719 389.03566406 9.44273437 389.75882812 8.51171875 390.50390625 C7.64160156 391.16261719 6.77148438 391.82132812 5.875 392.5 C5.10414063 393.09167969 4.33328125 393.68335938 3.5390625 394.29296875 C1.25 395.3125 1.25 395.3125 -1.02734375 394.8671875 C-4.92073825 392.64398662 -8.40359902 390.00140827 -11.9375 387.25 C-12.69345459 386.66653809 -13.44940918 386.08307617 -14.22827148 385.48193359 C-19.12580693 381.6686014 -23.84116353 377.74532649 -28.37890625 373.5078125 C-30.34465974 371.68779032 -32.34335427 369.94001419 -34.375 368.1953125 C-39.52654551 363.70022485 -44.35294016 358.89357422 -49.1875 354.0625 C-50.07759766 353.18464844 -50.96769531 352.30679687 -51.88476562 351.40234375 C-57.94774829 345.35264739 -63.40231641 338.99560139 -68.75 332.3125 C-69.67350784 331.22278169 -70.60311296 330.13815041 -71.54296875 329.0625 C-111.91504473 282.69717946 -147.81504715 219.15640345 -149.75 156.3125 C-149.78996094 155.05050781 -149.82992187 153.78851563 -149.87109375 152.48828125 C-150.67962615 113.26527202 -138.22022136 76.48022489 -111.06225586 47.78637695 C-110.06907842 46.75149211 -109.07350048 45.71890409 -108.07519531 44.68896484 C-106.95531544 43.52575874 -105.86129731 42.33773717 -104.7734375 41.14453125 C-87.77943717 22.99014763 -64.67291099 11.97742592 -41.1875 5.0625 C-40.36161377 4.81604736 -39.53572754 4.56959473 -38.68481445 4.31567383 C-25.9179283 0.71053946 -13.1759827 -0.06860771 0 0 Z M-56.75 95.3125 C-57.58273438 96.05113281 -58.41546875 96.78976563 -59.2734375 97.55078125 C-76.37931137 113.63030269 -84.99227869 135.78815903 -85.74609375 159.046875 C-86.01055193 180.33816233 -77.86552673 200.52573604 -63.75 216.3125 C-62.64205078 217.56160156 -62.64205078 217.56160156 -61.51171875 218.8359375 C-46.25242737 235.06922621 -25.01869437 244.16663775 -2.88256836 245.30615234 C18.83791857 245.90805353 40.36128675 238.69303999 56.5 223.9375 C58.44894181 222.09133136 60.34973586 220.2100649 62.25 218.3125 C63.36375 217.21615234 63.36375 217.21615234 64.5 216.09765625 C79.39611261 200.47419439 86.8015707 178.1165463 86.29711914 156.73706055 C85.04406204 132.59408294 74.6265748 111.74719856 57.3046875 94.953125 C43.30175181 82.41016752 24.07047346 74.12311964 5.25 73.3125 C4.12464844 73.25255859 4.12464844 73.25255859 2.9765625 73.19140625 C-19.13220467 72.58323628 -40.32701153 80.62810151 -56.75 95.3125 Z " fill="#000000" transform="translate(255.75,-0.3125)"/>
<path d="M0 0 C15.59913719 11.93714462 25.57059429 28.55606714 28.1875 48.0859375 C29.46335865 69.29447314 24.90304554 88.15722922 10.62109375 104.55859375 C-2.86096807 118.56002874 -20.11193596 126.77042223 -39.53320312 127.55664062 C-59.30963505 127.81083641 -77.45524021 120.88757578 -91.8125 107.0859375 C-105.84163591 92.71407025 -112.38278497 74.85450625 -112.23266602 54.90771484 C-111.57535638 35.13802506 -102.95212943 17.5915834 -88.6875 3.9609375 C-63.24730187 -17.63263273 -27.26366091 -18.5544359 0 0 Z " fill="#000000" transform="translate(297.8125,101.9140625)"/>
<path d="M0 0 C0.57935303 0.56589844 1.15870605 1.13179688 1.75561523 1.71484375 C2.73401367 2.65589966 2.73401367 2.65589966 3.73217773 3.6159668 C4.7627832 4.62397339 4.7627832 4.62397339 5.81420898 5.65234375 C12.07137121 11.63730254 18.39554712 17.35147229 25.25170898 22.65234375 C25.86546387 23.12800781 26.47921875 23.60367187 27.11157227 24.09375 C39.56411921 35.25789335 39.56411921 35.25789335 54.17749023 40.50390625 C66.85473396 36.99229363 79.30137173 24.25116159 89.25170898 15.77734375 C90.1284729 15.03895264 90.1284729 15.03895264 91.02294922 14.28564453 C94.03235391 11.71234319 96.83238316 9.08276551 99.49780273 6.15234375 C107.01428226 -1.95817826 107.01428226 -1.95817826 112.41577148 -2.8984375 C115.63339766 -2.55448436 118.61813326 -1.92610928 121.72875977 -1.04248047 C124.76804894 -0.20545541 127.82922722 0.48459553 130.90405273 1.1796875 C175.5183845 11.48568815 175.5183845 11.48568815 187.50170898 26.46484375 C189.51199617 30.12643826 190.25170898 32.46882864 190.25170898 36.65234375 C184.91631243 49.32391057 171.32397782 54.39311946 159.34545898 59.28515625 C140.27549483 66.65643998 119.52572086 70.49912866 99.25170898 72.65234375 C98.2887793 72.75530762 97.32584961 72.85827148 96.33374023 72.96435547 C44.17092706 78.2490963 -30.81321831 80.55926501 -75.08032227 47.93359375 C-79.05879155 44.66479736 -82.17486916 41.68729369 -83.74829102 36.65234375 C-83.65034595 31.16742007 -82.29685764 27.80676321 -78.74829102 23.65234375 C-66.14679929 12.83313472 -15.23206077 -11.74151312 0 0 Z " fill="#000000" transform="translate(202.748291015625,370.34765625)"/>
<path d="M0 0 C3.08329483 2.75873748 3.90431316 4.40461521 4.5625 8.5 C4.0094129 11.94143085 3.48203215 13.42502577 0.87109375 15.703125 C-1.56084837 17.38872997 -4.10714544 18.80207904 -6.6875 20.25 C-15.69670503 25.375927 -24.47291123 31.8596198 -28 42 C-29.29627208 48.12488559 -27.71792518 53.14508977 -24.71484375 58.52734375 C-4.51108201 87.65941934 48.33762145 96.40606167 80.23779297 102.23999023 C95.07559253 104.81423635 110.01633293 106.53978823 125 108 C126.84561523 108.18006592 126.84561523 108.18006592 128.72851562 108.36376953 C164.46796819 111.64526552 201.2842779 111.4368405 237 108 C237.65111755 107.9391925 238.30223511 107.87838501 238.9730835 107.81573486 C284.97313358 103.50957647 348.74138546 97.14307115 383 63 C387.6442664 57.19696614 390.52093304 52.07697503 390.3984375 44.53125 C389.00885356 35.70330494 381.89283494 29.04215597 375 24 C371.49009492 21.69339071 367.92707892 19.4768347 364.32080078 17.32421875 C359.09606437 14.19212874 359.09606437 14.19212874 358 12 C357.4269341 4.89398281 357.4269341 4.89398281 359.5625 1.5625 C363.03151921 -0.66123026 364.82367972 -1.1325816 369 -1 C384.29586202 4.9832394 398.53354815 17.42377395 406 32 C409.77573991 40.81005979 409.99836031 49.36469715 407.046875 58.4140625 C398.24786858 80.14892164 376.48783742 91.97399954 355.94433594 100.80273438 C307.68984754 120.42462584 252.90027183 128.052362 201.05078125 128.203125 C199.55537386 128.21010267 198.05996676 128.21714364 196.56455994 128.22424316 C191.81386954 128.24351815 187.06322524 128.24841815 182.3125 128.25 C181.50487717 128.25058914 180.69725433 128.25117828 179.86515808 128.25178528 C156.11552709 128.26402561 132.59206617 128.03978406 109 125 C107.77313477 124.85014648 106.54626953 124.70029297 105.28222656 124.54589844 C60.12937185 118.95079331 8.53264907 110.19489477 -28 81 C-28.86367188 80.34 -29.72734375 79.68 -30.6171875 79 C-39.01532731 71.95106953 -45.27042466 61.88926512 -47 51 C-47.62226087 38.55478258 -43.94965168 29.33979187 -35.8125 19.9375 C-27.71016218 11.30035441 -12.78423184 -3.65263767 0 0 Z " fill="#000000" transform="translate(75,384)"/>
</svg>
